<svg width="83" height="61" viewBox="0 0 83 61" fill="none" xmlns="http://www.w3.org/2000/svg">
<g clip-path="url(#clip0_943_214)">
<path d="M82.2957 45.9766C82.2973 45.9606 82.2973 45.9444 82.2957 45.9284L76.6616 16.995V16.9331C75.7919 12.1827 73.2849 7.88726 69.5764 4.79363C65.868 1.70001 61.1926 0.00383325 56.3632 1.52161e-06H26.0754C21.2324 -0.00185978 16.5439 1.70395 12.8344 4.81741C9.12494 7.93087 6.63202 12.2526 5.79413 17.0225L0.187568 45.9284C0.18596 45.9444 0.18596 45.9606 0.187568 45.9766C-0.268785 48.5678 0.112659 51.2371 1.27652 53.5969C2.44038 55.9566 4.32607 57.884 6.65981 59.0991C8.99356 60.3143 11.6539 60.754 14.2545 60.3544C16.8551 59.9547 19.2607 58.7366 21.1219 56.8769L21.2423 56.7497L34.8857 41.25H47.6044L61.2548 56.7497C61.2926 56.7944 61.3338 56.8356 61.3751 56.8769C63.6947 59.1916 66.8362 60.4941 70.1132 60.5C71.9195 60.4988 73.7037 60.1022 75.3404 59.3381C76.9771 58.5739 78.4267 57.4607 79.5874 56.0766C80.7481 54.6925 81.5917 53.0711 82.0589 51.3263C82.5262 49.5814 82.6059 47.7555 82.2923 45.9766H82.2957ZM32.9882 24.75H30.2382V27.5C30.2382 28.2293 29.9485 28.9288 29.4327 29.4445C28.917 29.9603 28.2175 30.25 27.4882 30.25C26.7588 30.25 26.0594 29.9603 25.5436 29.4445C25.0279 28.9288 24.7382 28.2293 24.7382 27.5V24.75H21.9882C21.2588 24.75 20.5594 24.4603 20.0436 23.9445C19.5279 23.4288 19.2382 22.7293 19.2382 22C19.2382 21.2707 19.5279 20.5712 20.0436 20.0555C20.5594 19.5397 21.2588 19.25 21.9882 19.25H24.7382V16.5C24.7382 15.7707 25.0279 15.0712 25.5436 14.5555C26.0594 14.0397 26.7588 13.75 27.4882 13.75C28.2175 13.75 28.917 14.0397 29.4327 14.5555C29.9485 15.0712 30.2382 15.7707 30.2382 16.5V19.25H32.9882C33.7175 19.25 34.417 19.5397 34.9327 20.0555C35.4485 20.5712 35.7382 21.2707 35.7382 22C35.7382 22.7293 35.4485 23.4288 34.9327 23.9445C34.417 24.4603 33.7175 24.75 32.9882 24.75ZM46.7382 22C46.7382 21.2707 47.0279 20.5712 47.5436 20.0555C48.0594 19.5397 48.7588 19.25 49.4882 19.25H57.7382C58.4675 19.25 59.167 19.5397 59.6827 20.0555C60.1985 20.5712 60.4882 21.2707 60.4882 22C60.4882 22.7293 60.1985 23.4288 59.6827 23.9445C59.167 24.4603 58.4675 24.75 57.7382 24.75H49.4882C48.7588 24.75 48.0594 24.4603 47.5436 23.9445C47.0279 23.4288 46.7382 22.7293 46.7382 22ZM75.7404 52.0678C75.2253 52.8094 74.5681 53.4414 73.8069 53.927C73.0457 54.4127 72.1956 54.7423 71.306 54.8969C70.2298 55.0851 69.1243 55.0153 68.0804 54.6932C67.0364 54.3711 66.0838 53.8059 65.3007 53.0441L54.9194 41.25H56.3632C59.8741 41.2505 63.327 40.3547 66.395 38.6475C69.4629 36.9403 72.0442 34.4782 73.8944 31.4944L76.8988 46.9631C77.0518 47.8483 77.0282 48.7551 76.8294 49.6312C76.6306 50.5072 76.2605 51.3353 75.7404 52.0678Z" fill="#FED701"/>
</g>
<defs>
<clipPath id="clip0_943_214">
<rect width="83" height="61" fill="white"/>
</clipPath>
</defs>
</svg>
