<?xml version="1.0" encoding="utf-8"?>
<!-- Generator: Adobe Illustrator 28.4.1, SVG Export Plug-In . SVG Version: 6.00 Build 0)  -->
<svg version="1.1" id="Layer_1" xmlns="http://www.w3.org/2000/svg" xmlns:xlink="http://www.w3.org/1999/xlink" x="0px" y="0px"
	 viewBox="0 0 800 800" style="enable-background:new 0 0 800 800;" xml:space="preserve">
<style type="text/css">
	.st0{fill-rule:evenodd;clip-rule:evenodd;fill:#FED701;}
</style>
<path class="st0" d="M298.7,615.6C200.6,540.5,66.7,416.3,66.7,298.9C66.7,102.8,250,29.5,400,181c150-151.5,333.3-78.3,333.3,117.8
	c0,117.4-134,241.6-232.1,316.7c-44.4,34-66.6,51-101.3,51S343.1,649.7,298.7,615.6z M550,208.3c13.8,0,25,11.2,25,25V275h41.7
	c13.8,0,25,11.2,25,25c0,13.8-11.2,25-25,25H575v41.7c0,13.8-11.2,25-25,25c-13.8,0-25-11.2-25-25V325h-41.7c-13.8,0-25-11.2-25-25
	c0-13.8,11.2-25,25-25H525v-41.7C525,219.5,536.2,208.3,550,208.3z"/>
</svg>
