<svg height="512" viewBox="0 0 58 59" width="512" xmlns="http://www.w3.org/2000/svg"><g id="Page-1" fill="none" fill-rule="evenodd"><g id="001---Borrowing-Calendar" fill-rule="nonzero"><path id="Shape" d="m16 14h39v41c0 2.209139-1.790861 4-4 4h-44c-2.209139 0-4-1.790861-4-4v-41z" fill="#ecf0f1"/><path id="Shape" d="m51 56h-5c-.5522847 0-1-.4477153-1-1s.4477153-1 1-1h4v-4c0-.5522847.4477153-1 1-1s1 .4477153 1 1v5c0 .5522847-.4477153 1-1 1z" fill="#bdc3c7"/><circle id="Oval" cx="29" cy="38" fill="#f3d55b" r="16"/><path id="Shape" d="m30 37.052v-7.989c2.8.328 5 2 5 3.937 0 .5522847.4477153 1 1 1s1-.4477153 1-1c0-3.054-3.06-5.577-7-5.948v-1.052c0-.5522847-.4477153-1-1-1s-1 .4477153-1 1v1.052c-3.94.371-7 2.894-7 5.948s3.06 5.577 7 5.948v7.989c-2.8-.328-5-1.995-5-3.937 0-.5522847-.4477153-1-1-1s-1 .4477153-1 1c0 3.054 3.06 5.577 7 5.948v1.052c0 .5522847.4477153 1 1 1s1-.4477153 1-1v-1.052c3.94-.371 7-2.894 7-5.948s-3.06-5.577-7-5.948zm-7-4.052c0-1.942 2.2-3.609 5-3.937v7.874c-2.8-.328-5-1.995-5-3.937zm7 13.937v-7.874c2.8.328 5 1.995 5 3.937s-2.2 3.609-5 3.937z" fill="#b19046"/><path id="Shape" d="m45 6h10c1.6548028.0049422 2.9950578 1.3451972 3 3v4c-.0049422 1.6548028-1.3451972 2.9950578-3 3h-52c-1.6548028-.0049422-2.9950578-1.3451972-3-3v-4c.0049422-1.6548028 1.3451972-2.9950578 3-3z" fill="#e64c3c"/><g fill="#bdc3c7"><path id="Shape" d="m18 6h-2c0-2.21-1.35-4-3-4s-3 1.79-3 4 1.35 4 3 4c.5522847 0 1 .4477153 1 1s-.4477153 1-1 1c-2.76 0-5-2.69-5-6s2.24-6 5-6 5 2.69 5 6z"/><path id="Shape" d="m34 6h-2c0-2.21-1.35-4-3-4s-3 1.79-3 4 1.35 4 3 4c.5522847 0 1 .4477153 1 1s-.4477153 1-1 1c-2.76 0-5-2.69-5-6s2.24-6 5-6 5 2.69 5 6z"/><path id="Shape" d="m50 6h-2c0-2.21-1.35-4-3-4s-3 1.79-3 4 1.35 4 3 4c.5522847 0 1 .4477153 1 1s-.4477153 1-1 1c-2.76 0-5-2.69-5-6s2.24-6 5-6 5 2.69 5 6z"/></g><path id="Shape" d="m29 55c-9.3888407 0-17-7.6111593-17-17s7.6111593-17 17-17 17 7.6111593 17 17c-.010471 9.3845001-7.6154999 16.989529-17 17zm0-32c-8.2842712 0-15 6.7157288-15 15s6.7157288 15 15 15 15-6.7157288 15-15c-.0093685-8.2803876-6.7196124-14.9906315-15-15z" fill="#f0c419"/><path id="Rectangle-path" d="m3 16h52v2h-52z" fill="#bdc3c7"/></g></g></svg>