<svg width="211" height="234" viewBox="0 0 211 234" fill="none" xmlns="http://www.w3.org/2000/svg">
<path d="M85.2465 26.2179V24.7179H83.7465H50.7669V1.5H108.5V153.073C108.5 182.529 84.4996 206.5 54.9989 206.5C25.4983 206.5 1.5 182.529 1.5 153.073C1.5 124.119 24.6891 100.466 53.4989 99.6697V122.904C37.5158 123.687 24.7535 136.916 24.7535 153.073C24.7535 169.733 38.3217 183.282 54.9989 183.282C71.676 183.282 85.2465 169.733 85.2465 153.073V26.2179Z" fill="#FF9C09" stroke="#BE760A" stroke-width="3"/>
<path d="M185.147 186.202L185.147 186.202L181.446 177.977C188.87 175.167 195.451 170.601 200.682 164.773L205.988 176.57L205.989 176.57C214.92 196.419 206.22 219.908 186.63 228.934L186.63 228.934C181.429 231.331 175.907 232.5 170.434 232.5C161.318 232.5 152.324 229.262 145.126 223.048L160.673 205.936C165.377 209.56 171.69 210.315 177.15 207.799L177.15 207.799C181.073 205.99 184.065 202.743 185.572 198.668C187.08 194.593 186.928 190.161 185.147 186.202Z" fill="#FF9C09" stroke="#BE760A" stroke-width="3"/>
<path d="M179.869 118.118L179.868 118.118L172.806 110.201L188.709 96.1169L195.78 104.044C195.78 104.044 195.78 104.044 195.78 104.044C200.102 108.89 203.209 114.606 204.932 120.745C205.965 124.429 206.5 128.264 206.5 132.157C206.5 155.499 187.439 174.5 164 174.5C140.561 174.5 121.5 155.499 121.5 132.157V2.5H142.78V132.159C142.78 137.263 144.606 141.952 147.634 145.608L147.634 145.608C151.527 150.305 157.418 153.309 164 153.309C170.582 153.309 176.473 150.305 180.366 145.608C183.397 141.952 185.22 137.263 185.22 132.159C185.22 130.216 184.954 128.3 184.438 126.459C183.921 124.617 183.155 122.854 182.161 121.215L182.16 121.213C181.496 120.123 180.731 119.085 179.869 118.118Z" fill="#FF9C09" stroke="#BE760A" stroke-width="3"/>
<path d="M113.823 195.062L113.827 195.066C115.457 196.709 117.744 197.656 120.073 197.656C122.4 197.656 124.688 196.711 126.336 195.064C127.972 193.41 128.915 191.136 128.915 188.811C128.915 186.487 127.97 184.195 126.339 182.546C124.689 180.914 122.4 179.969 120.073 179.969C117.745 179.969 115.455 180.916 113.823 182.546C113.823 182.546 113.823 182.546 113.823 182.546M113.823 195.062L112.762 196.122C110.832 194.19 109.729 191.535 109.729 188.811C109.729 186.088 110.83 183.417 112.762 181.485L113.822 182.547C113.822 182.546 113.822 182.546 113.823 182.546M113.823 195.062C112.173 193.41 111.229 191.135 111.229 188.811C111.229 186.485 112.173 184.196 113.823 182.546M113.823 195.062L113.823 182.546" fill="#FF9C09" stroke="#BE760A" stroke-width="3"/>
<path d="M150.454 195.064L150.449 195.069C148.821 196.711 146.535 197.658 144.206 197.658C141.88 197.658 139.608 196.714 137.955 195.063L137.951 195.06C136.308 193.429 135.361 191.141 135.361 188.814C135.361 186.488 136.305 184.201 137.953 182.551C139.607 180.915 141.881 179.971 144.206 179.971C146.537 179.971 148.825 180.917 150.453 182.547L150.455 182.549C152.104 184.196 153.05 186.487 153.05 188.814C153.05 191.139 152.106 193.411 150.454 195.064Z" fill="#FF9C09" stroke="#BE760A" stroke-width="3"/>
</svg>
