<?xml version="1.0" encoding="utf-8"?>
<!-- Generator: Adobe Illustrator 28.4.1, SVG Export Plug-In . SVG Version: 6.00 Build 0)  -->
<svg version="1.1" id="Layer_1" xmlns="http://www.w3.org/2000/svg" xmlns:xlink="http://www.w3.org/1999/xlink" x="0px" y="0px"
	 viewBox="0 0 800 800" style="enable-background:new 0 0 800 800;" xml:space="preserve">
<style type="text/css">
	.st0{fill:#FED701;}
</style>
<path class="st0" d="M784.7,391.9c-41.2-39.6-246.9-64.2-311.8-71.4c3.2-7.5,5.9-15.2,8.1-23c8.9-3.9,18.4-7.5,28.3-10.5
	c1.2,3.6,6.9,17.2,10.1,23.6c130.6,3.6,137.3-97,142.6-124.6c5.2-26.9,5-53,49.7-100.6C644.9,65.9,549,115.5,516.8,189.3
	c-11.7-4.4-23.8-7.8-36.2-9.9c-8.6-34.6-53.2-131-170.5-131c-75.9,0-152.5,31.3-210,86c-31,29.4-55.6,64.8-72.4,104
	C9.3,281,0,328,0,378.1C0,552.3,118.9,705,186.1,705c29.3,0,54.6-22,60.5-41.7c5,13.5,20.2,55.5,25.2,66.2
	c7.4,15.8,41.6,29.5,56.6,13.1c19.2,10.7,54.6,17.1,73.8-11.4c37.1,7.8,69.9-14.3,70.6-40.7c18.2-1,27.1-26.5,23.2-46.9
	c-2.9-15-34.2-68.8-46.4-87.3c24.2,19.7,85.4,25.2,92.8,0c39,30.6,99.7,14.6,104.5-10.3c47.3,12.3,101.7-14.7,92.7-47.4
	C815.8,493.3,806,412.3,784.7,391.9L784.7,391.9z M586.6,257.7c-20-7.9-45.4-12.9-63.2-12.9c-25.2,0-40.7,14.3-64.4,14.3
	c-5,0-16.9,0-26.5-3.4c6.3,6.6,14.1,10.2,29.2,10.2c9.1,0,27-4.6,41.5-9c0.2,3.1,0.5,6.1,1,9.1c-27.2,6.5-55.7,23.8-64,28.3
	c-18.3-40.6-2.6-78.9,12-96.6C517.6,197.9,570.5,242.8,586.6,257.7L586.6,257.7z M615,254.7l-10-9.3c-10.3-9.7-21-18.3-32-26.1
	c16.4-32.5,37-68,63-89.9c-28.6,11.5-56.9,46-73.6,82.8c-8.3-5.3-17-10.1-25.9-14.4c23.3-49.8,77.4-91.3,137.1-94.5
	C633.6,139.5,648.6,211.8,615,254.7L615,254.7L615,254.7z M532.8,288.6c-4.4-9.6-8.9-25.4-8.3-34.7c7.4-0.2,21.7,2.6,23.9,3.1
	c-0.9,4.4-1.3,14-1.3,15.2c1.4-2.4,5.3-10.8,6.9-14.1c14.3,2.7,33,7.3,44,12.4C585.1,278.8,563.2,287.9,532.8,288.6L532.8,288.6z
	 M297.1,223.5c-16.1-5.8-16.1-20.4,0-26.2c16.2-5.8,36.5,1.5,36.5,13.1C333.6,222,313.2,229.3,297.1,223.5L297.1,223.5z M351,228.9
	c0-23-18.7-41.7-41.7-41.8s-41.7,18.7-41.8,41.7c0,14.9,7.9,28.7,20.8,36.1C316.1,281,351,260.9,351,228.9z M443.7,176.4
	c-52.2,52.9-31.6,119.8-12.6,150c-27,44.9-80.1,75.7-141.8,89.7c69.3,0,110-17.8,133.7-35.3c15.1-11.2,23.3-22.1,27.5-28.2
	c102.7,6.6,265.3,39.7,281.2,50.4c6.3,4.3,12.9,13.8,13.9,22.9c-77.2-10.8-216.3-22.2-252.7-24.1c25.8,3.7,214.4,39.3,247.1,47.7
	c-10,16.2-32.7,27.7-66.8,19.7c18.5,25.1-17.3,55.3-67.3,38.7c11,24.7-33.4,46.9-84,21.2c0.7,24.7-62.7,27.5-87.7,0.2
	c0.5,3.3,3.5,9.5,4.7,12.2c-8,72.1-67.1,116.9-127.6,116.9c-148.1,0-277.1-120.3-277.1-280.4c0-169.2,125-295.5,275.9-295.5
	C396.7,82.6,435.7,150.7,443.7,176.4L443.7,176.4z"/>
</svg>
