<svg width="406" height="406" viewBox="0 0 406 406" fill="none" xmlns="http://www.w3.org/2000/svg">
<g clip-path="url(#clip0_265_1856)">
<path d="M203 0C91.0658 0 0 91.0658 0 203C0 314.934 91.0658 406 203 406C314.934 406 406 314.934 406 203C406 91.0658 314.934 0 203 0ZM203 387.545C101.242 387.545 18.4545 304.758 18.4545 203C18.4545 101.242 101.242 18.4545 203 18.4545C304.758 18.4545 387.545 101.242 387.545 203C387.545 304.758 304.758 387.545 203 387.545Z" fill="#F9D60F"/>
<path d="M203 35.9863C110.908 35.9863 35.9863 110.908 35.9863 203C35.9863 295.092 110.908 370.014 203 370.014C295.092 370.014 370.014 295.092 370.014 203C370.014 110.908 295.092 35.9863 203 35.9863ZM203 364.477C113.96 364.477 41.5227 292.039 41.5227 203C41.5227 113.96 113.96 41.5227 203 41.5227C292.039 41.5227 364.477 113.96 364.477 203C364.477 292.039 292.039 364.477 203 364.477Z" fill="#F9D60F"/>
<path d="M151.105 131.007H180.189V238.158C180.189 251.528 169.31 262.407 155.94 262.407C142.569 262.407 131.692 251.528 131.692 238.158C131.692 224.787 142.569 213.91 155.94 213.91V191.765C130.358 191.765 109.547 212.576 109.547 238.158C109.547 263.739 130.358 284.553 155.94 284.553C181.521 284.553 202.334 263.739 202.334 238.158V108.862H151.105V131.007Z" fill="#F9D60F"/>
<path d="M279.776 246.564C274.968 252.399 268.57 256.871 261.256 259.331L264.988 267.526C266.372 270.568 266.49 273.967 265.318 277.097C264.146 280.227 261.827 282.712 258.785 284.098C254.198 286.187 248.835 285.333 245.122 281.919L230.133 298.222C236.673 304.236 245.066 307.381 253.581 307.381C258.442 307.381 263.345 306.355 267.961 304.253C285.353 296.334 293.059 275.742 285.14 258.351L279.776 246.564Z" fill="#F9D60F"/>
<path d="M285.38 220.672C285.38 217.262 284.914 213.901 284.011 210.674C282.507 205.294 279.794 200.285 276.022 196.041L269.222 188.39L253.921 201.989L260.72 209.638C261.395 210.399 261.995 211.214 262.515 212.072C263.294 213.36 263.894 214.746 264.298 216.193C264.702 217.64 264.911 219.146 264.911 220.674C264.911 224.684 263.484 228.368 261.109 231.243C258.057 234.939 253.441 237.3 248.285 237.3C243.129 237.3 238.513 234.939 235.461 231.243C233.088 228.368 231.659 224.684 231.659 220.674V109.699H211.189V220.672C211.189 241.127 227.83 257.768 248.285 257.768C268.74 257.768 285.38 241.127 285.38 220.672Z" fill="#F9D60F"/>
<path d="M211.092 259.838C208.793 259.838 206.536 260.77 204.919 262.385C203.288 264.016 202.357 266.271 202.357 268.571C202.357 270.87 203.289 273.113 204.919 274.744C206.536 276.373 208.791 277.305 211.092 277.305C213.393 277.305 215.648 276.373 217.278 274.744C218.893 273.113 219.825 270.872 219.825 268.571C219.825 266.271 218.893 264.014 217.278 262.385C215.648 260.77 213.393 259.838 211.092 259.838Z" fill="#F9D60F"/>
<path d="M237.642 274.746C239.273 273.114 240.205 270.874 240.205 268.573C240.205 266.273 239.273 264.016 237.642 262.387C236.027 260.77 233.772 259.84 231.471 259.84C229.17 259.84 226.929 260.772 225.298 262.387C223.666 264.018 222.736 266.273 222.736 268.573C222.736 270.872 223.668 273.129 225.298 274.746C226.929 276.375 229.17 277.307 231.471 277.307C233.772 277.307 236.027 276.375 237.642 274.746Z" fill="#F9D60F"/>
</g>
<defs>
<clipPath id="clip0_265_1856">
<rect width="406" height="406" fill="white"/>
</clipPath>
</defs>
</svg>
