<svg width="544" height="544" viewBox="0 0 544 544" fill="none" xmlns="http://www.w3.org/2000/svg">
<circle cx="272" cy="272" r="272" fill="#E4941E"/>
<circle cx="272" cy="272" r="240" fill="#E7D625"/>
<ellipse cx="272" cy="279.5" rx="240" ry="232.5" fill="#DDCB0D"/>
<circle cx="272" cy="272" r="189" fill="#F7F187"/>
<ellipse cx="272" cy="268" rx="189" ry="185" fill="url(#paint0_linear_320_24)"/>
<path d="M252.246 185.218V183.718H250.746H217.767V160.5H275.5V312.073C275.5 341.529 251.5 365.5 221.999 365.5C192.498 365.5 168.5 341.529 168.5 312.073C168.5 283.119 191.689 259.466 220.499 258.67V281.904C204.516 282.687 191.754 295.916 191.754 312.073C191.754 328.733 205.322 342.282 221.999 342.282C238.676 342.282 252.246 328.733 252.246 312.073V185.218Z" fill="#FF9C09" stroke="#BE760A" stroke-width="3"/>
<path d="M352.147 345.202L352.147 345.202L348.446 336.977C355.87 334.167 362.451 329.601 367.682 323.773L372.988 335.57L372.989 335.57C381.92 355.419 373.22 378.908 353.63 387.934L353.63 387.934C348.429 390.331 342.907 391.5 337.434 391.5C328.318 391.5 319.324 388.262 312.126 382.048L327.673 364.936C332.377 368.56 338.69 369.315 344.15 366.799L344.15 366.799C348.073 364.99 351.065 361.743 352.572 357.668C354.08 353.593 353.928 349.161 352.147 345.202Z" fill="#FF9C09" stroke="#BE760A" stroke-width="3"/>
<path d="M346.869 277.118L346.868 277.118L339.806 269.201L355.709 255.117L362.78 263.044C362.78 263.044 362.78 263.044 362.78 263.044C367.102 267.89 370.209 273.606 371.932 279.745C372.965 283.429 373.5 287.264 373.5 291.157C373.5 314.499 354.439 333.5 331 333.5C307.561 333.5 288.5 314.499 288.5 291.157V161.5H309.78V291.159C309.78 296.263 311.606 300.952 314.634 304.608L314.634 304.608C318.527 309.305 324.418 312.309 331 312.309C337.582 312.309 343.473 309.305 347.366 304.608C350.397 300.952 352.22 296.263 352.22 291.159C352.22 289.216 351.954 287.3 351.438 285.459C350.921 283.617 350.155 281.854 349.161 280.215L349.16 280.213C348.496 279.123 347.731 278.085 346.869 277.118Z" fill="#FF9C09" stroke="#BE760A" stroke-width="3"/>
<path d="M280.823 354.062L280.827 354.066C282.457 355.709 284.744 356.656 287.073 356.656C289.4 356.656 291.688 355.711 293.336 354.064C294.972 352.41 295.915 350.136 295.915 347.811C295.915 345.487 294.97 343.195 293.339 341.546C291.689 339.914 289.4 338.969 287.073 338.969C284.745 338.969 282.455 339.916 280.823 341.546C280.823 341.546 280.823 341.546 280.823 341.546M280.823 354.062L279.762 355.122C277.832 353.19 276.729 350.535 276.729 347.811C276.729 345.088 277.83 342.417 279.762 340.485L280.822 341.547C280.822 341.546 280.822 341.546 280.823 341.546M280.823 354.062C279.173 352.41 278.229 350.135 278.229 347.811C278.229 345.485 279.173 343.196 280.823 341.546M280.823 354.062L280.823 341.546" fill="#FF9C09" stroke="#BE760A" stroke-width="3"/>
<path d="M317.454 354.064L317.449 354.069C315.821 355.711 313.535 356.658 311.206 356.658C308.88 356.658 306.608 355.714 304.955 354.063L304.951 354.06C303.308 352.429 302.361 350.141 302.361 347.814C302.361 345.488 303.305 343.201 304.953 341.551C306.607 339.915 308.881 338.971 311.206 338.971C313.537 338.971 315.825 339.917 317.453 341.547L317.455 341.549C319.104 343.196 320.05 345.487 320.05 347.814C320.05 350.139 319.106 352.411 317.454 354.064Z" fill="#FF9C09" stroke="#BE760A" stroke-width="3"/>
<defs>
<linearGradient id="paint0_linear_320_24" x1="272" y1="83" x2="272" y2="453" gradientUnits="userSpaceOnUse">
<stop stop-color="#EFD317"/>
<stop offset="1" stop-color="#E4E286"/>
</linearGradient>
</defs>
</svg>
