<?xml version="1.0" encoding="utf-8"?>
<!-- Generator: Adobe Illustrator 28.4.1, SVG Export Plug-In . SVG Version: 6.00 Build 0)  -->
<svg version="1.1" id="Layer_1" xmlns="http://www.w3.org/2000/svg" xmlns:xlink="http://www.w3.org/1999/xlink" x="0px" y="0px"
	 viewBox="0 0 800 800" style="enable-background:new 0 0 800 800;" xml:space="preserve">
<style type="text/css">
	.st0{fill:#FED701;}
</style>
<path class="st0" d="M212.9,0C167,0,121.1,0,75.2,0.3c0.7,5,1.6,9.9,2.6,14.8c139.6,0.3,279.3,0.3,418.9,0c1-4.9,2-9.8,2.8-14.8
	c-49.6-0.7-99.3,0-148.9-0.3C304.7,0.2,258.8,0.1,212.9,0L212.9,0z M94.1,22.7c-4.9,0-9.9,0.1-14.8,0.4
	c6.5,43.6,13.8,87.1,20.8,130.6c13.3-3.8,23-16.3,24.3-29.8c-3.7-5.8-9.3-10.3-11.5-17c-2.3-7.7-2.4-15.9-4.5-23.7
	c-2.1-8.3-6.7-15.8-8.3-24.3c11.9,6.6,21,17.2,29.3,27.6c7.6-8.5,15.6-16.6,24-24.2c2.3-1.9,4.9-3.4,7.6-4.3
	c-1.9,7.2-5.9,13.5-8.1,20.6c-3.6,9.8-2.5,20.7-6.8,30.2c-2.3,5.3-6,9.8-10.8,13c1,10.7,5.9,21.4,15,27.5c8.2,6.1,19.2,5.7,28.8,3.9
	c11.9-3.4,19.1-14.7,22.3-26c1.2-0.4,3.6-1.3,4.8-1.7c1.7,20-18.5,37.4-37.9,36.1c-14.8,0.2-28.4-8.3-34.6-21.8
	c-3.7-6-2.5-13.2-2.3-19.8l-4.8,2.9c1.6,6.3,2.6,13.4-1.4,19.1c-4.9,9.5-14.4,15.1-23.9,19.4l1.7,11.3c27.3,0.9,54.7,0.1,82.1,0.4
	c95.6-0.2,191.1,0.3,286.7-0.2l1.6-10.9c-11.6-3.1-22.8-9.9-28.1-21.1c-3.4-5.1-1.7-11.2-1.1-16.8c-1.1-1.8-2.9-3-4.4-4.4
	c-0.4,7.7,1.4,16.1-3.7,22.7c-9.9,19.1-36.7,25.2-54.5,14c-10.3-6.6-19.1-18.4-16.5-31.3c7.4,4.8,7.4,15,13.9,20.7
	c8.8,9.2,22.7,10.3,34.4,7.5c12.1-4.2,20.9-16.5,21.6-29c-3-5.3-7.6-9.6-10.1-15.3c-4.5-10-3.1-21.4-7.3-31.5
	c-1.9-6.7-7.3-12.5-6.7-19.8c11.4,8.2,21,18.7,30.5,29c6.3-8.5,14-15.9,21.9-22.9c2.4-2,5.2-3.6,8.1-4.5c-2.3,8.4-7,15.9-9,24.4
	c-1.7,7.3-2.2,14.9-4,22.2c-2,7.3-7.8,12.3-11.9,18.4c1.5,14.5,12.7,29.2,28.2,29.8c6.8-43.6,13.5-87.1,20.5-130.7
	c-9.2-0.4-18.4-0.3-27.6-0.3H108.9L94.1,22.7L94.1,22.7z M127.4,37.8c2.6,1,7.1,0.5,7.2,4.4c0.4,7.3-2.1,14.4-3.4,21.5l-5.9,3
	c-5.3-6.3-12-13-11.7-21.8c1.6,0.1,4.8,0.3,6.3,0.4c3.9,4.3,4.5,10.7,7.1,15.8C127.1,53.3,125.7,45.5,127.4,37.8L127.4,37.8z
	 M360.2,38c2.7,0.9,6.9,0.3,7.3,4.1c-0.4,6.9-1.9,13.8-1.4,20.8c2.7-6.2,4.3-13,8.1-18.8l6.7,1.7c-1.8,6.7-5.2,12.9-10,17.9
	c-2.3,3-6.3,0.6-9.4,0.7C361.6,55.6,357.3,46.8,360.2,38z M443.9,38.1c1.7,7.7-0.3,15.4,0.3,23.2c2.8-5.8,4.1-12.4,8.3-17.6l6,2.4
	c-2,8.1-7.2,14.7-12.6,20.9c-2-1.1-4-2.2-6-3.3c-1.5-8.2-3.6-16.3-3.1-24.7L443.9,38.1L443.9,38.1z M281.7,38.3
	c2.3,0.2,4.6,0.5,6.9,0.6c0.1,8-0.7,15.9-0.8,23.8c2.3-5.9,4.5-12,6.8-17.9l6.9,0.3c0.2,8.7-6.2,15.3-11.7,21.2
	c-2.1-0.9-4.1-1.7-6.2-2.6C281.9,55.4,279.3,46.8,281.7,38.3L281.7,38.3z M207.5,38.4c2,0,4,1.2,3.9,3.6c-0.2,7.6-1.8,15.1-1.6,22.8
	l-4.6-0.2c0.2-7.7-1.8-15.1-1.9-22.7C203.4,39.6,205.5,38.4,207.5,38.4z M196.9,44.2c4.5,6.6,6.3,14.4,7.4,22.2
	c-7.8-4-11.6-12.7-14.1-20.7L196.9,44.2L196.9,44.2z M431.1,44.4c3.5,6.6,6.2,13.7,6.2,21.3c-7.3-4.2-11.7-12.3-13.2-20.5
	L431.1,44.4L431.1,44.4z M140.1,44.4l6.9,0.9c-1.1,8.2-5.7,16.3-13.1,20.4C133.9,58.2,136.8,51.1,140.1,44.4L140.1,44.4z
	 M274.9,44.4c3.3,6.7,6.5,13.7,6.1,21.3c-7.2-4.1-11.5-12.3-12.9-20.3L274.9,44.4z M220,44.8c1.6,0,3.3,0.4,4.7,0.3
	c-1.7,8.5-6.5,16.9-14.2,21.3c1.2-6.7,2.6-13.5,5.8-19.5C217,45.2,218.4,44.8,220,44.8z M350.9,44.9c1.6,0,3,0.4,3.7,2.1
	c3,5.7,4.3,12,5.6,18.3c-8.7-2.1-12.2-12.5-14-20.3C347.5,45.3,349.3,44.9,350.9,44.9L350.9,44.9z M105.6,48.5
	c8.1,5.4,13.1,14.2,16.8,23c-7.8-4.2-14.8-9.9-20.6-16.7L105.6,48.5L105.6,48.5z M465.3,48.5c1.2,2.2,2.5,4.3,3.8,6.4
	c-5.9,6.5-12.7,12.1-20.3,16.5C452.5,62.8,457.2,53.9,465.3,48.5L465.3,48.5z M384.6,49.5l4.3,0.3l2,3.3l-3,6.7l6-0.7
	c-3.8,9.9-9.3,19.4-10.4,30.2c-1.4,11.5-3.6,24.1-13.3,31.8c-2.5,3.7-6.2,0.3-9.1-0.8c0.1,5.2,1.1,10.6-0.2,15.7
	c-4.4,12.2-14.7,21.4-27.3,24.5c-10.7,1.7-22.3,1-31.4-5.4c-8.5-5-12.8-14.1-17.1-22.4c-5,7.7-8.5,16.9-16.8,21.8
	c-9.3,6.9-21.7,7.9-32.7,5.6c-12.6-3.6-22.5-13.3-26.5-25.7c-1.4-3.8,0.2-7.6,1.8-11c4.8,8.2,7,18.3,15.1,24.2
	c8.5,7.3,20.7,7.5,31.2,5.1c11.6-4.2,19.9-15.2,21.6-27.3c-2.5-6.6-8-11.6-10.6-18.2c-3-6.4-2.5-13.6-3.9-20.3
	c-2-9.9-6.9-18.9-10.7-28.3l7.7,1.6l-4-5.7l0.9-5.1l5.9,0.3c4.7,7,10.6,13.5,12.9,21.8c-5.3-3.5-10.2-7.5-15.7-10.7
	c7.4,8.9,16.4,16.4,23.9,25.3c6.4-9,14.4-16.7,23.3-23.2l-0.2-2.9c-5.2,3.9-10.3,7.8-15.8,11.3c3.1-8,7.4-15.9,14.1-21.4
	c2.5-1.1,4.4,1.7,6.4,2.8l-3.4,7l6-0.7c-4.1,10.2-9.6,20.1-10.6,31.2c-1.4,9.2-2.5,19.5-9.4,26.6c-1.9,2.6-6,4.6-5.3,8.4
	c2.3,9.4,7,19.1,15.7,24.2c7,4.8,15.9,5,24.1,4.3c14.7-1.4,25.6-15.5,27.1-29.5c-2.4-5.3-7.3-9.1-9.7-14.4c-4.4-9-3.6-19.3-6.6-28.8
	c-2.3-8.3-6.8-15.7-9.4-23.9l7.2,3.5c-1.7-3.4-2.8-7.2-3-11c2.1,0,4.3,0.1,6.5,0.2c4.8,6.9,10.6,13.4,13,21.7
	c-4.3-2.6-8.3-5.3-12.6-7.9c6.1,8.2,14.1,14.8,20.8,22.5c5.1-6,10.5-11.8,16.4-17.1c2.9-2.6,6.1-5.2,7.5-9
	c-5.1,3.3-9.8,7.2-15.4,9.8C374.4,62.2,379.4,55.7,384.6,49.5L384.6,49.5z M233.4,49.6c0.3,2.3,2.3,5.2,0.2,7.3
	c-4.9,5.7-10.8,10.7-18,13.2c2.9-7.5,7.8-14,12.8-20.2C229.7,49.7,232.2,49.6,233.4,49.6L233.4,49.6z M414,49.6
	c2.1,0.1,4.1,0.1,6.2,0.3C424.7,57,431,63.2,433,71.7c-7-4.3-13.4-9.5-18.9-15.7C413.9,53.9,413.9,51.8,414,49.6z M180,49.6
	c2,0.1,4,0.3,6,0.6c4.6,4.8,8.3,10.4,11.5,16.3l-0.1,4.4c-4.8-3.7-9.3-7.8-14.5-10.8c7.1,9.7,17,16.8,24.5,26.2
	c9.6-9.6,17.7-21.8,30.5-27.3c-2.5,8.5-7.1,16.1-9.1,24.8c-2.1,9-1.9,18.7-6.1,27.1c-2.3,4.8-6.3,8.5-10.1,12.2
	c-3.6-0.8-7.4-0.7-11,0.1c-4.5-5.3-9.6-10.4-11.5-17.3c-2.3-7.2-2.5-14.8-4.1-22.2c-2.1-8.3-6.2-16-9.4-24l5.7,0
	C180.8,56.4,180,53.1,180,49.6L180,49.6z M157,49.7c0,2.1,0,4.2-0.1,6.3c-5.1,6.3-12,11-18.7,15.5c2.1-8.3,7.7-14.9,12.5-21.7
	C152.8,49.8,154.9,49.7,157,49.7L157,49.7z M203.5,66.7c4,0.4,8.8,0.4,10.3,5c0.1,4.3-4.2,7.1-6.4,10.3c-2.1-2.2-4.3-4.4-6-7
	C200.8,72.1,202.9,69.4,203.5,66.7z M362.4,67c3.4-0.3,6.6,3.4,8.2,6.5c-2.7,2.7-5.5,5.4-8.3,8c-2.6-3.5-8.1-8.6-3.2-12.8
	C359.9,67.7,361.1,67.1,362.4,67z M285.4,67c3.3,0,4.8,4.3,7,6.5c-2.6,2.7-5.4,5.2-8.3,7.7l-6.8-7.9c2.1-2,3.3-5.8,6.5-6
	C284.4,67.1,284.9,67,285.4,67z M440.2,67c3.2,0,6.6,3.4,8.3,6.2c-2.7,2.7-5.4,5.5-8.2,8.1c-2.5-3.3-8.2-7.3-4.2-11.7
	C437.3,67.7,438.8,67,440.2,67L440.2,67z M131.3,67c0.5,0,1,0.1,1.5,0.2c2,1.4,3,3.9,3.8,6.1c-1.4,3-3.8,5.4-5.9,8
	c-3.6-2.6-6.5-6.1-8.4-10.1C125.1,69.6,127.9,67,131.3,67L131.3,67z M448.1,180.6c-7.1,0-14.2,0.2-21.2,0.1H116.3
	c-3.6,0-7.2,0.3-10.7,0.6l-0.6,5.5c121.6,0.1,243.3,0.1,364.9,0l-0.6-5.3C462.3,180.7,455.2,180.5,448.1,180.6L448.1,180.6z
	 M287.4,191.2l-181.6,0.1c21,127.8,40.9,255.7,61.9,383.6c9.1,46.4,25.3,92.7,55.6,129.7c27.1,33.6,66.8,57.6,109.9,63
	c2,0.5,3.9,1.2,5.7,2.3c-9.7,1.9-19.5,1-29.2,1.2c-85.1,0-170.1-0.1-255.2,0c-0.4,6.1-0.4,12.3-0.2,18.4
	c196.7,0.4,393.4,0.1,590.1,0.2c33.8-0.3,67.7,0.6,101.6-0.4c-0.1-6-0.1-12.1,0-18.1c-101.4-0.2-202.9,0-304.3-0.1
	c-23.1-2.9-44-22-47.5-45.3c-2.3-15.1,7-30,20.4-36.5c20.8-11.3,45.7-7.1,67,0.7c8.5,3.9,18.1,3.7,27.1,2.1
	c8.7-2.5,16.2-10.6,16.3-20c0.9-10-3.8-19.3-9.9-26.9c-11.1-13.7-26.6-23.2-43-29.5c-21.3-8.2-37.5-27.1-44.5-48.6
	c-11.5-33.4-8.5-69.8-1.4-103.8c14.3-90.6,28.2-181.3,42.8-271.9C408.5,191.3,348,191.2,287.4,191.2L287.4,191.2z M285.8,284.2
	c6.1-0.1,12.3,0.4,16.8,4.5c3.7,3.4,2.8,8.7,1,12.8c-5.2,13.7-9.7,27.6-14.8,41.3c-8,0.7-16,1.8-23.9,3.4
	c-0.4-16.6,0.2-33.2,0.3-49.8c-0.7-7.9,7.7-12.2,14.6-12.1C281.8,284.3,283.8,284.2,285.8,284.2L285.8,284.2z M323.6,290.9
	c8.6-0.2,16.5,4.5,20.5,12c2.5,6.3-2.2,11.8-6,16.3c-7.9,9.2-14.3,19.4-22.8,28.1c-7.1-1.3-14.1-3-21.2-4.7
	c3.9-13.1,9.5-25.5,13.9-38.4c1.7-4.3,2.9-9.5,7.5-11.6C318.1,291.6,320.8,291,323.6,290.9L323.6,290.9z M251.9,291.4
	c3.9,0,7.6,1.1,8.3,5.6c1.1,16.3,0.5,32.8,1.2,49.1c-6.7,3.1-13.3,6.6-20.3,9.1c-6.1-12.3-12-24.8-18.1-37.2
	c-2.3-4.2-3.5-9.8-0.3-13.8c5.5-6.8,14.2-10.1,22.5-12.2C247.1,291.8,249.6,291.4,251.9,291.4L251.9,291.4z M357.8,311.8
	c1.5,0,3,0.3,4.5,0.8c6.4,4,11.2,10.2,13.3,17.4c0.9,7-4.6,13.1-10.3,16.3c-10.3,5.8-20.8,11.3-31.3,16.7c-4.1-5-8.5-9.8-13.2-14.3
	c8.5-10.3,16.1-21.3,25.2-31.1C348.8,314.2,353.1,312,357.8,311.8L357.8,311.8z M217.8,317c6.4,14.2,14.6,27.6,19.5,42.3
	c-4.8,5.5-9.5,11.2-14.4,16.6c-10.8-10.5-22.9-19.6-33.8-30c0.4-8.5,2.3-17.6,9.1-23.5C203.7,318.3,211,317.3,217.8,317L217.8,317z
	 M179.1,349c0.8,0,1.5,0,2.3,0.1c5.5,0.7,9.3,5.1,13.5,8.3c8.5,7.7,17.7,14.8,26.1,22.7c-2,5.7-4.2,11.3-6.6,16.9
	c-10.5-2.6-19.5-8.9-29.4-13.1c-6.1-3.1-13-5.3-17.8-10.3C162,364.7,168.2,349.3,179.1,349L179.1,349z M287.2,351
	c0.7,4.7,0.8,9.5,0.8,14.3c-0.3,9.8,4.2,19,4.8,28.7c-5.4,1.9-10.5,5-16.3,5.6c-9.4-6-16.6-14.7-20.9-25c-2.6-6.1-3.4-15.5,3.7-18.9
	C268.1,352,277.8,351.2,287.2,351L287.2,351z M298.9,353.2c11,0.2,22.2,4.4,28.4,13.8c-4.5,8.3-7.5,17.3-8,26.8
	c-6.3,0.2-12.6,1-18.8-0.2c-9-11.3-7.3-26.8-6.3-40.3C295.8,353.2,297.3,353.2,298.9,353.2z M244.6,365.8
	c3.9,6.6,7.3,13.4,11.6,19.8c4.7,7,11.2,12.3,17,18.4c-2.7,3.5-5.1,7.3-8.2,10.3c-11.4,0.2-21.7-6.1-31-12.2c-4.7-3.6-11.2-9-9-15.7
	C228.6,377.6,234.6,368.3,244.6,365.8L244.6,365.8z M562.8,376.8c-15.3-0.2-30.9,3.2-43.8,11.7c-22.3,14.5-40.2,34.8-55,56.7
	c-19.8,29.7-33.3,64.4-34.3,100.4c0.3,15.5,3.7,32.1,15,43.6c17,18.8,43.5,22.9,64.3,36c12.3,7.4,22.2,19.2,26.3,33.1
	c4.2,13.5,1.7,27.9-2.3,41.1c12.7,0.5,25.5,0.7,38,3.4c12.1,0.8,23.9,4,35.3,8.2c-2.7-12.2-3.3-24.6-4.2-37
	c-4.8-41.4-7.4-83-12.4-124.4c-7.2-1-14.5-1.4-21.6-3.4c1.8-2.9,3.6-5.8,5.5-8.7c-7.7-0.7-18.9,2-22.7-6.8c-0.1-4.6,5-6,8-8.3
	c-5.8-0.9-12.2-2.1-16-7c-3.2-3.2-3.2-8-3.7-12.2c4.2-0.4,8.3-0.7,12.5-1.2c-6.3-3.9-12.9-8.3-14.7-16.1c3.8-2.5,7.7-4.8,11.7-6.9
	c0.2-1.5,0.4-3,0.7-4.5c-4.8-1.1-12-0.1-13.6-6.1c-3.7-12.9,4.7-24.6,13.7-32.9c3.4-2.1-0.2-5-2.4-6c-8.3-4.5-14-12.5-15.5-21.8
	c-1-6.8,4.9-12,10.4-14.8c7.4-3.5,15.8-6.4,24.1-5c6.3,1.2,7.2,11.7,14.2,10.4c3.3-5.1,7-10.2,12.4-13.2c-5.8-3.9-12.3-6.7-19.3-7.5
	C569.8,377.1,566.3,376.9,562.8,376.8L562.8,376.8z M166.4,384.2c3.9-0.1,7.7,1.8,11.3,3.1c11.8,5,23.6,10,35.1,15.6
	c-0.2,6.5-0.6,13-0.7,19.5c-5.8-0.9-11.7-1.7-17.4-3c-11.6-2.7-23.8-2.2-35-6.6c-4-2.4-4.3-7.6-3.8-11.7c0.7-6.1,2.1-13.1,7.7-16.5
	C164.6,384.3,165.5,384.2,166.4,384.2L166.4,384.2z M601.4,390.2c-1.7,0-3.4,0.5-4.9,1.3c-7.2,4.8-12.4,12.3-20.5,16
	c-4.6-5.3-9.2-12.9-17.2-12.7c-8-1.2-15.4,3.9-20,10c0.8,9.3,7.2,18.1,15.3,22.7c5.7,2,12.8,2.4,18.2-0.6
	c8.4-7.2,12.7-18.4,22.4-24.1c7.3-2.6,15.5-1.4,21.7,3.3c8.4,4.9,16.7,10.2,24.8,15.7c-5.2-13.5-20.1-18.1-29.8-27.4
	C608.8,391.8,605.2,390.2,601.4,390.2L601.4,390.2z M221.9,398.4c11.1,12.3,27.2,17.4,43,20.6c-0.2,6.9-0.1,13.9,0.1,20.8
	c-12.1,0.4-24,3.7-36.1,2.4c-4.5-2.6-6.5-7.8-7.8-12.6C218.8,419.4,218.3,408.4,221.9,398.4L221.9,398.4z M309.8,399.4
	c3.3,0,6.7,0.1,10,0.5c2.4,10.5,5.3,21,10.7,30.3c19.6,35.2,46.7,65.3,68.2,99.2c17.9,31.4,30.2,65.7,40.8,100.1
	c4.8,16.6,7.7,33.8,14.7,49.7c-10.4-1.3-21.3-2.1-31.5,1.1c-7.4,1.7-13.7,6.2-19.9,10.4c0.5-33.8-2.6-68.5-15-100.2
	c-17.3-42.5-48.3-77.4-79.7-110.1c-8.4-9-16.1-18.7-24.5-27.6c-4.6-4.9-9.4-10.3-10.8-17.1c-2.4-10,0.3-21.6,8.7-28
	C289.7,401.6,299.7,399.5,309.8,399.4L309.8,399.4z M602.8,409.4c-12.7,0.4-21,14.8-21.2,26.5c-1.4,8.9,8.6,16.6,16.8,13.6
	c6.7-4.4,10.4-12.1,17.2-16.4c6.3-4.8,14.4-5.1,21.9-5.9c-4.6-8.5-14.4-10.5-23.3-10.8c-2.4-2.9-4.4-7.3-8.9-6.9
	C604.5,409.3,603.6,409.3,602.8,409.4L602.8,409.4z M604.8,413.8c0.9,0,1.8,0.1,2.7,0.3c-2.5,5-9.6,3.3-12.9,7.4
	c-2.6,3.2-2,8.2,0.1,11.5c2.7,2.5,6.4,3.2,9.7,4.5c-3.9,3.7-9.1,8.7-14.7,4.9C582.3,431.7,591.7,413.8,604.8,413.8L604.8,413.8z
	 M604.2,420.4c0,3.3,0.1,6.6,0.2,9.9c4.9,0,6.5-4.6,8.2-8.3c5.1-0.6,10.3-0.3,15.3,0.8c-6.9,3.5-13.5,7.7-20.8,10.5
	c-4.2-0.3-10.1-4.3-7.9-9.1C600,422.1,602.5,421.6,604.2,420.4L604.2,420.4z M174.1,423.7c1.8,0,3.6,0.2,5.3,0.2
	c10.9,0.8,21.9,1.4,32.7,3.5c2.4,8.5,6.7,16.3,10.4,24.2c-15.6,0-31.2-0.1-46.8,0.6c-5.1,0-12.3,0.3-14.2-5.7c-1.2-7-1.5-15.7,4-21
	C168.2,424.2,171.2,423.5,174.1,423.7L174.1,423.7z M573.3,431.7c-10.5,2.8-20.9,8.1-27.2,17.2c-3.5,4.8-3.2,11-3.5,16.6
	c5.8,1.5,11.8,1.5,17.8,1.2c0.4,10.2-7.4,17.3-13.1,24.8c6.4,1.3,13,2.2,19.5,2.9c-0.9,8.5-9,12.9-14.6,18.4
	c7.4,2.2,15.1,0.8,22.1-1.9c0.5,8.3-5.8,14.1-9.8,20.5c8.2-0.3,16.2-2.3,24.3-3.7c-1.7,4.3-3.6,8.5-5,12.8l2.9,2.3
	c8.6-0.7,16.4-5.1,21.5-12.1c-7.3-7.2-15.5-13.7-21.1-22.4C572.3,486,568.2,457.7,573.3,431.7L573.3,431.7z M635.3,432.6
	c-4.3-0.3-8.6,0.5-12.6,2.3c-6,2.9-10.3,8.2-15.4,12.2c-5.3,4.7-11.7,8.1-16.4,13.3c-3.3,3.3-1.8,8.4-2,12.6
	c6.2,1.1,13.7,1.5,18.1-3.9c8-8.1,4.9-21.8,13.6-29.2c6.1-5.7,15-4.5,22.5-6.9C640.5,432.9,637.9,432.6,635.3,432.6L635.3,432.6z
	 M641.5,436.9c-2.5,0.1-4.9,0.6-7.2,1.5c6.7,1.6,14.3,1.6,19.8,6.3c5.8,4.5,8.1,12.1,14.3,16.2c2.1-5.5,3.4-11.3,3.8-17.2
	C661.9,442.8,651.8,436.4,641.5,436.9L641.5,436.9z M262.2,443.8c1.3,0,2.6,0,3.9,0.1c4.9,5.2,9,11,13.5,16.6
	c-10.4,1.5-20.4,5-30.9,6c-9.8,2.6-20.1-11-13.3-19.2C244.4,447,253.2,443.8,262.2,443.8L262.2,443.8z M641.4,446.8
	c-4.3,0-8.5,1.4-11.9,4.1c-9.6,7.2-13.3,19.4-21.8,27.7c9.4-0.6,19.1,0.2,28.3-2.6c8-2.5,16-4.7,24.2-6.5c-1.3-6.3-3-12.9-7.5-17.7
	C649.9,448.5,645.7,446.7,641.4,446.8L641.4,446.8z M223.6,454.4c3.9,5.7,7.3,11.7,11.8,16.9c-18,5.3-36.4,10.5-55.2,12
	c-5.2-3.2-8.9-8.2-10.6-14c-0.5-2.7-0.8-6.4,2.5-7.5c6.8-3.6,14.7-3.3,22.1-3.9C204.1,457.2,213.7,454.2,223.6,454.4L223.6,454.4z
	 M283.8,464.7c4.9,5.1,9.5,10.5,13.6,16.2c-10.7,4.4-22.1,6.7-33.3,9.7c-8.6,2.9-17.3-5.4-17.6-13.7c-0.7-3.8,3.3-5.4,6.3-6.3
	C263.2,468.4,273.4,465.9,283.8,464.7L283.8,464.7z M663.1,473.1c-8.4,2.7-16.1,7.7-25,8.8c-13,3-27.3,0.3-39.2,7.2
	c-7.3,4-8.3,14.2-4.3,20.9c3.1,6,9.4,9.1,14.3,13.4c2,4,2.2,8.7,4.8,12.4c5.3,2,12.9,2.9,16.9-2.1c3.1-3.2,3.1-7.9,4.5-11.8
	c1.7-8,7.6-14.1,11-21.3c-6.4,3.4-10.4,9.8-16.5,13.5c-6.8,1.6-13.9,1.6-20.8,0.1c-8.7-2.2-12.5-14.5-5.1-20.4
	c9.7-6.7,22.3-5.8,33.5-5.3c5.6-0.6,8.3,4.8,11.6,8.2C655.1,489.8,660.1,481.9,663.1,473.1L663.1,473.1z M237.9,477.1
	c2,7.1,6.4,13.1,12.3,17.6c-13.5,4.1-27.1,7.6-40.5,12c-4.7,0.9-10.1,4.3-14.6,1c-5.2-3.1-9-9.4-8-15.5c3-4.8,9.2-4.8,14.1-6.4
	C213.5,483.2,225.4,478.9,237.9,477.1L237.9,477.1z M302,486.3c6.5,3.4,10.3,10.3,15.5,15.4c-8.5,4.1-17.9,5.3-26.8,8.1
	c-5.2,1.2-10.2,3.8-15.6,3.6c-5.3-2.1-10.5-7.5-9.4-13.7c-0.2-5,5.6-6.3,9.3-7.5C283.9,490,292.8,486.8,302,486.3L302,486.3z
	 M623.2,493.7c-5.2-0.2-10.3,1-14.9,3.5c9.8,0.5,19.6,1.5,28.5,5.9c-0.3-2.3,2-7.1-1.7-7.6C631.2,494.4,627.2,493.8,623.2,493.7z
	 M257,499c1.1,7.1,4.1,14.1,10.8,17.6c-15.8,5.3-31.8,9.8-47.9,14.2c-8.6,2.5-16.4-7.7-13.4-15.8c3.6-4.5,9.7-4.7,14.8-6.2
	C233.2,505.5,244.9,501.7,257,499L257,499z M320.4,506.4c5.5,5,10.5,10.5,14.4,16.8c-9.8,2.9-19.6,5.8-29.3,8.8
	c-5.3,1.3-11.1,2.9-16.3,0.8c-5.4-3.5-8-13.1-2.2-17.4C298,512.3,309.3,509.6,320.4,506.4L320.4,506.4z M273.9,521.1
	c2.4,6.5,5.8,12.6,10.6,17.7c-14,4.1-27.9,8.3-41.9,12.3c-5.1,1.4-12.3,2.7-15.8-2.5c-3.8-4.7-4.3-14.6,3.3-15.8
	C244.7,528.8,259,523.6,273.9,521.1L273.9,521.1z M337.7,527.6c5.1,5.2,9.8,10.7,14.2,16.5c-9.8,4.1-20.2,6.3-30.2,9.7
	c-4.5,1.2-9.4,3.2-14,1.5c-6.6-2.4-8.7-11.5-5.3-17.2C313.6,533.5,325.7,530.3,337.7,527.6L337.7,527.6z M289.5,542.5
	c3.3,6.5,6.9,13,12.4,18c-14.4,3.6-28.5,8.4-42.8,12.4c-5,1-11.8,2.5-15.3-2.3c-3.7-4-2-9.7-1.8-14.5
	C257.7,551.4,273.5,546.4,289.5,542.5z M355.2,548.1c4.1,5.8,7.9,11.7,11,18c-8.6,4.2-18.2,5.6-27.1,9c-5.5,2.1-11.7,3.7-17.5,1.6
	c-5.8-3.9-5.9-11.3-4.1-17.4C330.2,556,342.6,551.7,355.2,548.1L355.2,548.1z M308.8,562.6c-0.5,7.3,2.3,14,7.3,19.2
	c-11,4.6-22.8,6.9-34.1,10.7c-5.9,1.5-12,4.7-18.3,3.2c-6.6-3-8.7-11.5-5.5-17.7C274.8,571.9,292.1,568.1,308.8,562.6z M368.8,570.3
	c3.1,5.8,6.8,11.4,8.3,17.8l-1.6,2.5c-7.7,2.5-15.7,4.3-23.3,7.1c-5.6,2-11.9,4-17.6,1.4c-5.2-3.8-8.8-13.6-1.7-17.4
	C344.6,577.3,356.9,574.5,368.8,570.3L368.8,570.3z M321.6,585c-0.5,7.7,3.3,14.5,8.3,20c-13.9,3.9-27.8,8-41.7,12.1
	c-4.2,1-9,2.5-13,0c-4.2-3.1-7.5-9.2-5.1-14.3c1.5-3.3,5.4-3.8,8.5-5C293,593.7,307.5,590,321.6,585L321.6,585z M380,594.2
	c2.9,6.3,4.8,12.9,5.8,19.7c-10.1,3.2-20.1,6.4-30.1,9.7c-7.9,3.7-16.9-4.8-15.6-12.9c-0.4-4.9,5-6.5,8.8-7.5
	C359.3,600.5,369.4,596.4,380,594.2L380,594.2z M331.8,609.3c0.7,3.6,0.7,7.3,2.2,10.7c2.1,3.2,5.3,5.4,8.2,7.9
	c-13.5,3.9-27,7.8-40.4,11.9c-5.1,1.2-10.8,3-15.9,0.6c-6.1-3.5-8.1-16.1,0.1-18.1C301.4,618.3,316.4,613,331.8,609.3L331.8,609.3z
	 M387.5,618.7c1.4,6.9,3,13.9,4,20.9c-10.7,2.3-20.7,7.5-31.6,8.8c-9.2,1.8-15.2-11.1-10-17.9C362.2,625.8,375.1,623.1,387.5,618.7z
	 M340.1,633.3c0,7.2,2.8,14.1,7.8,19.2c-9.9,4.3-20.6,6.5-30.8,9.9c-6.1,1.6-12.1,4.2-18.5,4.3c-7.2,0.2-11.3-8.7-9.8-14.9
	c0.5-4.2,5.2-4.4,8.3-5.8C311.4,642,325.8,638,340.1,633.3L340.1,633.3z M391.5,644.1c1.2,6.9,2.3,13.9,3,20.9
	c-8.7,2.6-17.1,6-25.8,8.4c-8.1,2.7-16.2-6.1-14.2-14c-0.3-3.9,4-4.9,6.8-6.1C371.4,650.2,381.6,647.6,391.5,644.1z M346.1,658.7
	c0,7.4,3.6,14.4,9.7,18.6c-13.2,4.5-26.7,7.7-40,12c-4.2,1.2-8.3,3.1-12.8,2.5c-5.1-2.6-9.3-8.1-8.2-14.1c-0.3-5.1,5.9-5.8,9.5-7.1
	C318.4,667.2,332,661.9,346.1,658.7L346.1,658.7z M394.7,670.1c0.1,7.2,0.1,14.4-0.2,21.7c-8.6,2.3-16.7,6.2-25.4,8.2
	c-10.3,2-18-16.4-7-20C372.8,676.1,383.8,673.3,394.7,670.1L394.7,670.1z M348.6,684.8c0.9,4,1,8.4,3.1,12.1c2.1,2.7,5.2,4.1,7.9,6
	c-16.3,4.9-32.7,9.7-49,14.4c-4,1.5-7.9-1.1-10.7-3.9c-3.3-3.5-2.2-8.6-2.7-13c6.4-3.8,13.8-5.1,20.8-7.2
	C328.2,690.6,338.2,687,348.6,684.8L348.6,684.8z M455.4,695.3c-7.9-0.4-15.7,1.3-22.7,4.8c-8.1,3.7-16,9.7-18.7,18.6
	c-3.5,12,0,26.3,9.7,34.6c10.4,9.3,24.9,11.7,38.3,13.1c82.7,0.2,165.4,1.3,248,0.2c-2.8-6.6-6.9-13.7-14-16.2
	c-5.9-2.1-11.7-4.3-17.8-5.8c-0.6,4.9-0.9,9.9-1.1,14.8c-6.9,0.6-13.7-1.8-18.6-6.7c-17.6-14.3-41.4-11.1-62.3-15.6
	c-15.9-3.8-32-6.7-48.2-8.3c-18.7-3.7-38-1.2-56.7-5c-12.3-1.2-25.3-4.4-37.4-0.4c-4.4,4-3.2,11.6,1.1,15.1
	c7.6,8.1,19.5,5.5,29.4,5.4c29.1-0.4,58.2-0.2,87.3,0.3c10.4,0.3,21.1,0.8,30.7,5.1l2.1,3.9c-12.8-0.4-25.5-1.1-38.3-0.5
	c-18-0.4-35.8,2.9-53.9,2.5c-17.8-0.4-35.6,1.3-53.3-0.3c-8.7-1.5-18.1-4.1-24.1-11c-6.5-7.5-8.4-20.1-1.3-27.9
	c5.1-5,12.6-6.5,19.5-7.5c12.6,0.3,24.3,6.3,36.9,6.7c17.7,0.9,35.6-0.6,53.2,2.2c16.1,0.8,32.2,2.5,47.7,6.8c7.3,2,14,6.7,21.8,6.4
	c10.8,0,21.8,1,32.1,4.4c8.3,2.8,15.3,9.3,24.4,9.8c0.4-9-10-13.7-9-22.9c3.3,0.4,7.5-0.7,10,2.3c5.1,4.8,9.7,10,14.8,14.7
	c-1.8-4.2-3.1-8.7-3.7-13.3c2.8,2.3,5.5,4.8,7.7,7.7c8.2,10.3,17.2,20.1,25.9,29.9l6.5-0.3c-2.5-7.2-5.9-14-10.1-20.3
	c-3.6-5.6-10.9-6.3-15.9-10c-3-4.2-4.6-9.1-7.6-13.2c-2.8-3-7.2-2-10.9-2.1c-5.6,0.5-10.3-4.2-15.9-3.4c-8.7,0.4-15.2,8.2-24,7.9
	c-11.2,0.4-22.6-0.1-33.1-4.1c-13.9-4.6-28.4-7.1-43.1-7.5c-14.8-3.1-30.1-2.2-45-5.1c-10.2-1.6-20.9-0.3-30.8-3.9
	C475.7,698.3,465.5,695.6,455.4,695.3L455.4,695.3z M395.1,696.7c-2.4,6.6-3.5,13.6-5.1,20.4c-0.5,3.1-3.9,3.9-6.3,5
	c-5.6,1.9-11.5,4.8-17.5,3.3c-7.1-2.7-12-15.3-3.4-19C373.3,702.3,384.5,700.6,395.1,696.7L395.1,696.7z M350.2,711
	c0.3,7.2,3.1,14.2,9.7,17.9c-13.1,5.5-27,8.2-40.4,12.6c-3.2,0.9-6.4,2.2-9.7,2.3c-9.3,0-16-15.6-6-19.7
	C319.3,720,334.6,714.7,350.2,711L350.2,711z M721.2,794.2c-8.2,0-16.5,0.3-24.7,0.1H64.2c-3.7,0.5-9.5-0.7-10.3,4.2
	c2.2,2.2,5.7,1.1,8.5,1.5c227.9-0.3,455.8,0.1,683.8-0.2l-0.2-4.5C737.8,794.4,729.5,794,721.2,794.2L721.2,794.2z"/>
</svg>
