<svg id="Layer_1" enable-background="new 0 0 512 512" height="512" viewBox="0 0 512 512" width="512" xmlns="http://www.w3.org/2000/svg"><g><g fill="#ffcbbe"><path d="m175.67 204.65h160.67c4.42 0 8-3.58 8-8v-49.94c0-29.56-21.44-54.37-49.64-59.64 6.84-8.5 10.95-19.28 10.95-31.01 0-27.34-22.27-49.59-49.64-49.59s-49.64 22.24-49.64 49.59c0 11.73 4.1 22.51 10.94 31.01-28.17 5.26-49.63 30.07-49.63 59.64v49.94c-.01 4.42 3.57 8 7.99 8z"/><path d="m127.03 322.88c6.84-8.5 10.95-19.29 10.95-31.02 0-27.34-22.26-49.59-49.61-49.59-27.37 0-49.64 22.24-49.64 49.59 0 11.73 4.11 22.51 10.95 31.01-28.21 5.27-49.68 30.1-49.68 59.66v49.91c0 4.42 3.58 8 8 8h160.69c4.42 0 8-3.58 8-8v-49.91c0-29.55-21.45-54.36-49.66-59.65z"/><path d="m462.35 322.88c6.84-8.5 10.95-19.29 10.95-31.02 0-27.34-22.27-49.59-49.64-49.59s-49.64 22.24-49.64 49.59c0 11.73 4.11 22.51 10.95 31.01-28.18 5.27-49.64 30.1-49.64 59.66v49.91c0 4.42 3.58 8 8 8h160.67c4.42 0 8-3.58 8-8v-49.91c0-29.55-21.44-54.36-49.65-59.65z"/></g><g><path d="m256 505.53c-38.15 0-75.85-9.73-109.04-28.12-3.86-2.14-5.26-7.01-3.12-10.88 2.14-3.86 7.01-5.26 10.88-3.12 30.82 17.09 65.85 26.12 101.29 26.12 35.46 0 70.49-9.03 101.31-26.12 3.86-2.14 8.73-.75 10.88 3.12 2.14 3.86.75 8.73-3.12 10.88-33.2 18.39-70.92 28.12-109.08 28.12zm-209.39-273.39c-.69 0-1.4-.09-2.1-.28-4.26-1.16-6.78-5.55-5.63-9.81 16.94-62.53 60.18-114.71 118.62-143.17 3.97-1.93 8.76-.28 10.69 3.69s.28 8.76-3.69 10.69c-54.29 26.43-94.45 74.9-110.19 132.97-.95 3.56-4.17 5.91-7.7 5.91zm418.78 0c-3.52 0-6.75-2.35-7.72-5.91-15.73-58.06-55.88-106.53-110.16-132.97-3.97-1.94-5.62-6.72-3.69-10.7s6.73-5.62 10.7-3.69c58.43 28.46 101.65 80.65 118.59 143.17 1.16 4.26-1.36 8.66-5.63 9.81-.7.2-1.4.29-2.09.29z" fill="#8d9ca8"/></g><path d="m294.69 87.07c-9.11 11.31-23.06 18.58-38.69 18.58s-29.59-7.26-38.7-18.58c-28.17 5.26-49.63 30.07-49.63 59.64v49.94c0 4.42 3.58 8 8 8h160.67c4.42 0 8-3.58 8-8v-49.94c-.01-29.56-21.45-54.37-49.65-59.64z" fill="#fc778a"/><path d="m127.03 322.88c-9.1 11.31-23.05 18.57-38.66 18.57-15.63 0-29.59-7.26-38.69-18.58-28.21 5.27-49.68 30.1-49.68 59.66v49.91c0 4.42 3.58 8 8 8h160.69c4.42 0 8-3.58 8-8v-49.91c0-29.55-21.45-54.36-49.66-59.65z" fill="#9dc6fb"/><path d="m462.35 322.88c-9.11 11.31-23.06 18.57-38.69 18.57s-29.59-7.26-38.69-18.58c-28.18 5.27-49.64 30.1-49.64 59.66v49.91c0 4.42 3.58 8 8 8h160.67c4.42 0 8-3.58 8-8v-49.91c0-29.55-21.44-54.36-49.65-59.65z" fill="#ffe07d"/><g fill="#f7beaf"><path d="m256 6.47c-2.07 0-4.1.14-6.1.39 24.5 3.01 43.54 23.92 43.54 49.2s-19.04 46.19-43.54 49.2c2 .25 4.03.39 6.1.39 27.37 0 49.64-22.25 49.64-49.59s-22.27-49.59-49.64-49.59z"/><path d="m88.36 242.27c-2.07 0-4.1.14-6.1.39 24.49 3.02 43.51 23.92 43.51 49.2s-19.03 46.18-43.51 49.2c2 .25 4.03.39 6.1.39 27.36 0 49.61-22.25 49.61-49.59s-22.25-49.59-49.61-49.59z"/><path d="m423.67 242.27c-2.07 0-4.1.14-6.1.39 24.5 3.01 43.54 23.92 43.54 49.2s-19.04 46.19-43.54 49.2c2 .25 4.03.39 6.1.39 27.37 0 49.64-22.25 49.64-49.59s-22.27-49.59-49.64-49.59z"/></g><path d="m304.26 89.7c16.75 11.44 27.87 31.31 27.87 53.78v52.72c0 4.66-3.58 8.45-8 8.45h12.2c4.42 0 8-3.58 8-8v-49.94c0-26.11-16.73-48.5-40.07-57.01z" fill="#f46075"/><path d="m138.25 326.15c15.84 11.66 26.24 31.04 26.24 52.86v52.95c0 4.69-3.58 8.49-8 8.49h12.2c4.42 0 8-3.58 8-8v-49.91c0-25.49-15.95-47.44-38.44-56.39z" fill="#80b4fb"/><path d="m473.57 326.14c15.83 11.66 26.23 31.04 26.23 52.87v52.95c0 4.69-3.58 8.49-8 8.49h12.2c4.42 0 8-3.58 8-8v-49.91c0-25.49-15.95-47.44-38.43-56.4z" fill="#f0d47b"/><g><g fill="#f46075"><path d="m215.33 204.65v-43.93c0-4.42-3.58-8-8-8s-8 3.58-8 8v43.93z"/><path d="m312.67 204.65v-43.93c0-4.42-3.58-8-8-8s-8 3.58-8 8v43.93z"/></g></g><g fill="#80b4fb"><path d="m47.66 440.44v-43.93c0-4.42-3.58-8-8-8s-8 3.58-8 8v43.93z"/><path d="m145.03 440.44v-43.93c0-4.42-3.58-8-8-8s-8 3.58-8 8v43.93z"/></g><g fill="#f0d47b"><path d="m383 440.44v-43.93c0-4.42-3.58-8-8-8s-8 3.58-8 8v43.93z"/><path d="m480.34 440.44v-43.93c0-4.42-3.58-8-8-8s-8 3.58-8 8v43.93z"/></g></g></svg>