<svg width="207" height="210" viewBox="0 0 207 210" fill="none" xmlns="http://www.w3.org/2000/svg">
<g clip-path="url(#clip0_279_21)">
<path d="M103 155.636C144.755 155.636 178.604 121.773 178.604 80C178.604 38.2272 144.755 4.36365 103 4.36365C61.2446 4.36365 27.3955 38.2272 27.3955 80C27.3955 121.773 61.2446 155.636 103 155.636Z" fill="black" stroke="#FFD62F" stroke-width="8.72727" stroke-miterlimit="10"/>
<path d="M103 138.182C135.118 138.182 161.155 112.133 161.155 80C161.155 47.8671 135.118 21.8182 103 21.8182C70.8817 21.8182 44.8447 47.8671 44.8447 80C44.8447 112.133 70.8817 138.182 103 138.182Z" fill="black" stroke="#FFD62F" stroke-width="2.32727" stroke-miterlimit="10"/>
<path d="M86.4419 73.6989C86.4888 77.0676 87.5438 80.5236 83.6226 83.0604C76.9115 87.4066 78.9864 96.3724 84.8535 100.032C85.7327 100.579 87.2683 100.666 88.2823 100.323C93.6805 98.4844 96.3532 94.784 96.3122 88.9309C96.2243 77.2131 96.3884 65.4895 96.5173 53.7716C96.5408 51.7295 95.6381 51.0255 93.7215 51.008C91.676 50.9847 89.6362 50.7869 87.5907 50.688C84.4959 50.5309 84.8418 48.2793 84.83 46.2487C84.8183 44.2589 85.3986 42.9091 87.8251 42.9615C92.8013 43.0662 97.7775 43.0487 102.754 43.0255C104.336 43.0196 105.034 43.5898 105.034 45.2364C104.987 60.7244 105.35 76.224 104.846 91.6946C104.489 102.656 93.446 110.505 82.8665 107.596C76.5364 105.856 71.7712 101.213 70.429 94.8538C69.0457 88.2967 70.3879 81.7804 76.7181 77.6727C79.5256 75.8516 82.6438 74.5018 85.6154 72.9367C85.8909 73.1927 86.1664 73.4429 86.4477 73.6989H86.4419Z" fill="#FFD62F"/>
<path d="M121.662 91.6189C123.309 89.8735 125.349 87.9651 127.066 85.8066C128.385 84.1484 127.131 82.752 125.964 81.4953C123.579 78.9178 124.599 74.5076 127.934 73.1753C128.368 73.0007 129.247 73.0997 129.475 73.4022C131.075 75.5142 133.215 77.5098 133.953 79.9186C136.321 87.616 132.646 93.6378 126.451 97.3906C123.913 98.9266 119.013 98.2866 115.965 96.9251C110.942 94.6735 107.842 90.5717 108.047 84.2706C108.434 72.6575 108.182 61.0269 108.228 49.408C108.228 48.448 108.527 47.4822 108.516 46.5222C108.486 43.712 110.168 43.6946 112.402 43.6713C115.092 43.6422 115.109 45.1258 115.109 47.0051C115.098 56.8844 115.279 66.7695 115.063 76.6429C114.934 82.4669 114.945 87.9942 121.674 91.6131L121.662 91.6189Z" fill="#FFD62F"/>
<path d="M133.713 92.928C134.65 97.3324 136.075 101.027 136.075 104.721C136.075 110.865 129.598 117.213 123.467 117.039C120.953 116.969 118.462 114.886 116.07 113.536C115.76 113.361 115.789 111.599 116.158 111.377C118.157 110.173 120.202 108.783 122.424 108.276C127.482 107.124 127.236 107.119 127.324 102.01C127.359 99.7876 129.534 97.5535 130.888 95.4182C131.38 94.6444 132.3 94.144 133.713 92.9222V92.928Z" fill="#FFD62F"/>
<path d="M110.906 100.829C110.994 104.18 109.57 105.082 107.595 105.007C106.018 104.943 104.623 104.46 104.617 102.26C104.617 99.7353 106.252 98.9207 108.11 99.0371C109.259 99.1069 110.338 100.439 110.906 100.835V100.829Z" fill="#FFD62F"/>
<path d="M115.302 106.019C113.866 104.396 112.202 103.104 112.407 102.639C113.087 101.114 114.447 99.8866 115.549 98.5426C116.393 99.7876 117.711 100.957 117.922 102.301C118.057 103.18 116.58 104.297 115.302 106.019Z" fill="#FFD62F"/>
</g>
<g filter="url(#filter0_d_279_21)">
<path d="M16.95 192.05C16.95 191.45 16.71 190.88 16.23 190.34C15.77 189.8 15.18 189.3 14.46 188.84C13.74 188.38 12.78 187.82 11.58 187.16C10.1 186.34 8.89 185.62 7.95 185C7.03 184.38 6.25 183.66 5.61 182.84C4.97 182.02 4.65 181.12 4.65 180.14C4.65 179.14 5.11 178.07 6.03 176.93C6.95 175.77 8.07 174.8 9.39 174.02C10.73 173.22 11.96 172.82 13.08 172.82C14.42 172.82 15.99 172.97 17.79 173.27C19.59 173.57 20.91 173.89 21.75 174.23V180.8H18.93C18.09 179.18 17.16 177.92 16.14 177.02C15.14 176.12 14.08 175.67 12.96 175.67C12.16 175.67 11.53 175.93 11.07 176.45C10.61 176.95 10.38 177.59 10.38 178.37C10.38 179.01 10.62 179.62 11.1 180.2C11.6 180.76 12.21 181.28 12.93 181.76C13.67 182.22 14.66 182.79 15.9 183.47C17.36 184.27 18.54 184.97 19.44 185.57C20.34 186.17 21.1 186.87 21.72 187.67C22.34 188.47 22.65 189.35 22.65 190.31C22.65 191.31 22.16 192.39 21.18 193.55C20.2 194.69 19 195.66 17.58 196.46C16.18 197.24 14.9 197.63 13.74 197.63C12.34 197.63 10.66 197.48 8.7 197.18C6.76 196.88 5.36 196.56 4.5 196.22V189.65H7.32C8.2 191.27 9.22 192.53 10.38 193.43C11.54 194.33 12.71 194.78 13.89 194.78C14.81 194.78 15.55 194.52 16.11 194C16.67 193.46 16.95 192.81 16.95 192.05ZM44.3759 197H37.5659V187.4C37.5659 186.46 37.4159 185.8 37.1159 185.42C36.8359 185.02 36.3359 184.82 35.6159 184.82C34.5559 184.82 33.5059 185.16 32.4659 185.84V194.15L35.1659 195.05L34.1759 197H24.6959V195.32L27.3659 193.07V176.66L24.6959 174.89V173.21L30.5759 170.81H32.4659V183.47L35.8259 180.77C36.3659 180.61 36.9759 180.53 37.6559 180.53C39.1759 180.53 40.3859 180.95 41.2859 181.79C42.2059 182.61 42.6659 183.73 42.6659 185.15V194.15L45.3659 195.05L44.3759 197ZM64.3148 197H57.4748V194.39L54.0848 197.06C53.6848 197.22 53.1848 197.3 52.5848 197.3C50.6648 197.3 49.2748 196.83 48.4148 195.89C47.5748 194.95 47.1548 193.82 47.1548 192.5C47.1548 191.72 47.3948 190.96 47.8748 190.22C48.3548 189.46 49.0448 188.76 49.9448 188.12H57.4748V187.61C57.4748 186.51 57.1748 185.7 56.5748 185.18C55.9748 184.66 55.1748 184.4 54.1748 184.4C52.7748 184.4 50.9448 184.95 48.6848 186.05L47.7848 184.34L51.9548 180.98C52.9748 180.68 54.1648 180.53 55.5248 180.53C57.7648 180.53 59.4948 181.04 60.7148 182.06C61.9548 183.08 62.5748 184.56 62.5748 186.5V194L65.2748 195.05L64.3148 197ZM54.1148 193.28C55.1348 193.28 56.2548 192.86 57.4748 192.02V190.1H52.6448C52.4848 190.34 52.3648 190.57 52.2848 190.79C52.2248 190.99 52.1948 191.22 52.1948 191.48C52.1948 191.98 52.3648 192.4 52.7048 192.74C53.0648 193.08 53.5348 193.25 54.1148 193.25V193.28ZM86.036 197H79.226V187.4C79.226 186.46 79.076 185.8 78.776 185.42C78.496 185.02 77.996 184.82 77.276 184.82C76.216 184.82 75.166 185.16 74.126 185.84V194.15L76.826 195.05L75.836 197H66.356V195.32L69.026 193.07V176.66L66.356 174.89V173.21L72.236 170.81H74.126V183.47L77.486 180.77C78.026 180.61 78.636 180.53 79.316 180.53C80.836 180.53 82.046 180.95 82.946 181.79C83.866 182.61 84.326 183.73 84.326 185.15V194.15L87.026 195.05L86.036 197ZM108.345 197H101.535V187.4C101.535 186.46 101.385 185.8 101.085 185.42C100.805 185.02 100.305 184.82 99.585 184.82C98.525 184.82 97.475 185.16 96.435 185.84V194.15L99.135 195.05L98.145 197H88.665V195.32L91.335 193.07V186.26L88.665 184.58V182.9L94.905 180.26L96.075 183.74L99.795 180.77C100.335 180.61 100.945 180.53 101.625 180.53C103.145 180.53 104.355 180.95 105.255 181.79C106.175 182.61 106.635 183.73 106.635 185.15V194.15L109.335 195.05L108.345 197ZM128.299 197H121.459V194.39L118.069 197.06C117.669 197.22 117.169 197.3 116.569 197.3C114.649 197.3 113.259 196.83 112.399 195.89C111.559 194.95 111.139 193.82 111.139 192.5C111.139 191.72 111.379 190.96 111.859 190.22C112.339 189.46 113.029 188.76 113.929 188.12H121.459V187.61C121.459 186.51 121.159 185.7 120.559 185.18C119.959 184.66 119.159 184.4 118.159 184.4C116.759 184.4 114.929 184.95 112.669 186.05L111.769 184.34L115.939 180.98C116.959 180.68 118.149 180.53 119.509 180.53C121.749 180.53 123.479 181.04 124.699 182.06C125.939 183.08 126.559 184.56 126.559 186.5V194L129.259 195.05L128.299 197ZM118.099 193.28C119.119 193.28 120.239 192.86 121.459 192.02V190.1H116.629C116.469 190.34 116.349 190.57 116.269 190.79C116.209 190.99 116.179 191.22 116.179 191.48C116.179 191.98 116.349 192.4 116.689 192.74C117.049 193.08 117.519 193.25 118.099 193.25V193.28ZM159.83 197H152.99V187.04C152.99 186.22 152.86 185.65 152.6 185.33C152.36 184.99 151.91 184.82 151.25 184.82C150.27 184.82 149.31 185.16 148.37 185.84V194.21L150.89 195.05L149.93 197H143.27V187.04C143.27 186.22 143.14 185.65 142.88 185.33C142.64 184.99 142.19 184.82 141.53 184.82C140.55 184.82 139.6 185.16 138.68 185.84V194.21L141.17 195.05L140.21 197H130.91V195.32L133.58 193.07V186.26L130.91 184.58V182.9L137.15 180.26L138.32 183.74L141.92 180.77C142.4 180.61 142.95 180.53 143.57 180.53C144.75 180.53 145.74 180.81 146.54 181.37C147.36 181.91 147.91 182.66 148.19 183.62L151.67 180.77C152.15 180.61 152.7 180.53 153.32 180.53C154.78 180.53 155.94 180.95 156.8 181.79C157.68 182.61 158.12 183.73 158.12 185.15V194.15L160.79 195.05L159.83 197ZM172.547 180.53C174.647 180.53 176.267 181.33 177.407 182.93C178.567 184.53 179.127 186.75 179.087 189.59H168.287C168.487 190.81 168.917 191.79 169.577 192.53C170.237 193.25 171.097 193.61 172.157 193.61C173.557 193.61 175.567 192.91 178.187 191.51L179.087 193.22L174.527 196.85C173.347 197.15 171.977 197.3 170.417 197.3C168.957 197.3 167.637 196.96 166.457 196.28C165.297 195.58 164.387 194.63 163.727 193.43C163.087 192.23 162.767 190.9 162.767 189.44C162.767 187.86 163.277 186.39 164.297 185.03C165.317 183.65 166.587 182.56 168.107 181.76C169.647 180.94 171.127 180.53 172.547 180.53ZM170.897 184.01C170.017 184.01 169.357 184.31 168.917 184.91C168.477 185.49 168.237 186.39 168.197 187.61H173.927C173.767 186.37 173.467 185.46 173.027 184.88C172.607 184.3 171.887 184.01 170.867 184.01H170.897ZM201.056 197H194.246V187.4C194.246 186.46 194.096 185.8 193.796 185.42C193.516 185.02 193.016 184.82 192.296 184.82C191.236 184.82 190.186 185.16 189.146 185.84V194.15L191.846 195.05L190.856 197H181.376V195.32L184.046 193.07V176.66L181.376 174.89V173.21L187.256 170.81H189.146V183.47L192.506 180.77C193.046 180.61 193.656 180.53 194.336 180.53C195.856 180.53 197.066 180.95 197.966 181.79C198.886 182.61 199.346 183.73 199.346 185.15V194.15L202.046 195.05L201.056 197Z" fill="white"/>
</g>
<defs>
<filter id="filter0_d_279_21" x="0.5" y="170.81" width="205.546" height="34.82" filterUnits="userSpaceOnUse" color-interpolation-filters="sRGB">
<feFlood flood-opacity="0" result="BackgroundImageFix"/>
<feColorMatrix in="SourceAlpha" type="matrix" values="0 0 0 0 0 0 0 0 0 0 0 0 0 0 0 0 0 0 127 0" result="hardAlpha"/>
<feOffset dy="4"/>
<feGaussianBlur stdDeviation="2"/>
<feComposite in2="hardAlpha" operator="out"/>
<feColorMatrix type="matrix" values="0 0 0 0 0 0 0 0 0 0 0 0 0 0 0 0 0 0 1 0"/>
<feBlend mode="normal" in2="BackgroundImageFix" result="effect1_dropShadow_279_21"/>
<feBlend mode="normal" in="SourceGraphic" in2="effect1_dropShadow_279_21" result="shape"/>
</filter>
<clipPath id="clip0_279_21">
<rect width="160" height="160" fill="white" transform="translate(23)"/>
</clipPath>
</defs>
</svg>
