<svg height="512" viewBox="0 0 48 48" width="512" xmlns="http://www.w3.org/2000/svg"><g fill="#fff" id="Pickaxe"><rect height="10" rx="1" transform="matrix(.707 -.707 .707 .707 -2.163 27.222)" width="12" x="25.779" y="11.222"/><path d="m29.5789 8.5223c-6.9065-6.0185-12.2906-6.7017-12.5389-6.7295a1 1 0 0 0 -.8173 1.7011l9.1924 9.1924z"/><path d="m46.2065 30.96c-.0278-.2485-.711-5.6319-6.7282-12.5376l-4.1639 4.1639 9.191 9.191a1 1 0 0 0 1.7011-.8173z"/><path d="m24.0007 19.7574-21.9207 21.9203a1 1 0 0 0 0 1.4142l2.8288 2.8281a1 1 0 0 0 1.4142 0l21.9203-21.92z"/></g></svg>