<?xml version="1.0" encoding="utf-8"?>
<!-- Generator: Adobe Illustrator 28.4.1, SVG Export Plug-In . SVG Version: 6.00 Build 0)  -->
<svg version="1.1" id="Capa_1" xmlns="http://www.w3.org/2000/svg" xmlns:xlink="http://www.w3.org/1999/xlink" x="0px" y="0px"
	 viewBox="0 0 800 800" style="enable-background:new 0 0 800 800;" xml:space="preserve">
<style type="text/css">
	.st0{fill:#FED701;}
</style>
<g>
	<path class="st0" d="M400,0C179.4,0,0,179.4,0,400s179.4,400,400,400s400-179.4,400-400S620.6,0,400,0z M400,763.6
		C199.5,763.6,36.4,600.5,36.4,400S199.5,36.4,400,36.4S763.6,199.5,763.6,400S600.5,763.6,400,763.6z"/>
	<path class="st0" d="M400,70.9C218.5,70.9,70.9,218.5,70.9,400S218.5,729.1,400,729.1S729.1,581.5,729.1,400S581.5,70.9,400,70.9z
		 M400,718.2C224.6,718.2,81.8,575.4,81.8,400S224.6,81.8,400,81.8S718.2,224.6,718.2,400S575.4,718.2,400,718.2z"/>
	<path class="st0" d="M297.7,258.1h57.3v211.1c0,26.3-21.4,47.8-47.8,47.8s-47.8-21.4-47.8-47.8c0-26.3,21.4-47.8,47.8-47.8v-43.6
		c-50.4,0-91.4,41-91.4,91.4s41,91.4,91.4,91.4s91.4-41,91.4-91.4V214.5H297.7V258.1z"/>
	<path class="st0" d="M551.3,485.8c-9.5,11.5-22.1,20.3-36.5,25.2l7.4,16.1c2.7,6,3,12.7,0.7,18.9c-2.3,6.2-6.9,11.1-12.9,13.8
		c-9,4.1-19.6,2.4-26.9-4.3l-29.5,32.1c12.9,11.9,29.4,18,46.2,18c9.6,0,19.2-2,28.3-6.2c34.3-15.6,49.5-56.2,33.9-90.4L551.3,485.8
		z"/>
	<path class="st0" d="M562.3,434.8c0-6.7-0.9-13.3-2.7-19.7c-3-10.6-8.3-20.5-15.7-28.8l-13.4-15.1L500.3,398l13.4,15.1
		c1.3,1.5,2.5,3.1,3.5,4.8c1.5,2.5,2.7,5.3,3.5,8.1c0.8,2.9,1.2,5.8,1.2,8.8c0,7.9-2.8,15.2-7.5,20.8c-6,7.3-15.1,11.9-25.3,11.9
		c-10.2,0-19.3-4.7-25.3-11.9c-4.7-5.7-7.5-12.9-7.5-20.8V216.2h-40.3v218.7c0,40.3,32.8,73.1,73.1,73.1S562.3,475.1,562.3,434.8z"
		/>
	<g>
		<path class="st0" d="M415.9,512c-4.5,0-9,1.8-12.2,5c-3.2,3.2-5,7.7-5,12.2s1.8,8.9,5,12.2c3.2,3.2,7.6,5,12.2,5
			c4.5,0,9-1.8,12.2-5c3.2-3.2,5-7.6,5-12.2c0-4.5-1.8-9-5-12.2C424.9,513.8,420.5,512,415.9,512z"/>
	</g>
	<g>
		<path class="st0" d="M468.3,541.4c3.2-3.2,5.1-7.6,5.1-12.2c0-4.5-1.8-9-5.1-12.2c-3.2-3.2-7.6-5-12.2-5s-8.9,1.8-12.2,5
			c-3.2,3.2-5,7.7-5,12.2c0,4.5,1.8,9,5,12.2c3.2,3.2,7.6,5,12.2,5S465.1,544.6,468.3,541.4z"/>
	</g>
</g>
</svg>
