<svg id="Layer_1" enable-background="new 0 0 68 68" viewBox="0 0 68 68" xmlns="http://www.w3.org/2000/svg"><g><g><path d="m66 22.1921158v33.9501953c0 5.4399414-4.420166 9.8598633-9.8601074 9.8598633h-44.2800293c-5.4499512 0-9.8598633-4.4199219-9.8598633-9.8598633v-33.9501953c0-5.4499512 4.4099121-9.8598623 9.8598633-9.8598623h44.2800293c5.4399414 0 9.8601074 4.4099111 9.8601074 9.8598623z" fill="#abb8c2"/><path d="m66 16.3476791v33.9501953c0 5.4399414-4.420166 9.8598633-9.8601074 9.8598633h-44.2800293c-5.4499512 0-9.8598633-4.4199218-9.8598633-9.8598632v-33.9501954c0-5.4499521 4.4099121-9.8598642 9.8598633-9.8598642h44.2800293c5.4399414 0 9.8601074 4.4099121 9.8601074 9.8598642z" fill="#e8edf2"/><path d="m56.1398926 6.4878149h-22.0300293v53.6699219h22.0300293c5.4399414.0000009 9.8601074-4.4199209 9.8601074-9.8598623v-33.9501954c0-5.4499521-4.420166-9.8598642-9.8601074-9.8598642z" fill="#c4d3e4"/><path d="m66 16.3476791v4.1401367h-64v-4.1401367c0-5.4499521 4.4099121-9.8598642 9.8598633-9.8598642h44.2800293c5.4399414 0 9.8601074 4.4099121 9.8601074 9.8598642z" fill="#454545"/><g><path d="m48.4032898 40.474514c0 7.8794632-6.3247032 14.2788658-14.1731873 14.3969917-.0747032.0063782-.1554756.0063782-.2301788.0063782-7.9602356 0-14.4032154-6.4492073-14.4032154-14.4033699s6.4429798-14.4033661 14.4032154-14.4033661c.0747032 0 .1554756 0 .2301788.0063782 7.8484841.118124 14.1731873 6.5175285 14.1731873 14.3969879z" fill="#108be1"/><path d="m48.4032898 40.474514c0 7.8794632-6.3247032 14.2788658-14.1731873 14.3969917v-28.7939796c7.8484841.118124 14.1731873 6.5175285 14.1731873 14.3969879z" fill="#0c6bc3"/></g><g><path d="m40.75 38.2678452-6.5200195 6.5200195-.7299805.7299805c-.3901367.3898926-.9001465.579834-1.420166.579834-.5100098 0-1.0200195-.1899414-1.4099121-.579834l-3.4199219-3.4201661c-.7802734-.7797852-.7802734-2.0498047 0-2.829834.7797852-.7800293 2.0498047-.7800293 2.829834 0l2 2 2.1501465-2.1501465 3.6899414-3.6799316c.7800293-.7800293 2.0498047-.7800293 2.8300781 0 .7797852.7800293.7797852 2.0500489 0 2.8300782z" fill="#fff"/></g><path d="m40.75 38.2678452-6.5200195 6.5200195v-5.670166l3.6899414-3.6799316c.7800293-.7800293 2.0498047-.7800293 2.8300781 0 .7797852.7800292.7797852 2.0500488 0 2.8300781z" fill="#e8edf2"/><path d="m66 16.3476791v4.1401367h-31.8901367v-14.0000009h22.0300293c5.4399414 0 9.8601074 4.4099121 9.8601074 9.8598642z" fill="#2c2c2c"/><g fill="#fabb53"><path d="m21.2797852 5.2878637v6.579834c0 1.8100586-1.4799805 3.2900391-3.2900391 3.2900391h-.0097656c-1.8100586 0-3.2900391-1.4799805-3.2900391-3.2900391v-6.579834c0-1.8100584 1.4799805-3.2900388 3.2900391-3.2900388h.0097656c1.8100586 0 3.2900391 1.4799805 3.2900391 3.2900388z"/><path d="m37.2949219 5.2878637v6.579834c0 1.8100586-1.4799805 3.2900391-3.2900391 3.2900391h-.0097656c-1.8100586 0-3.2900391-1.4799805-3.2900391-3.2900391v-6.579834c0-1.8100584 1.4799805-3.2900388 3.2900391-3.2900388h.0097656c1.8100586 0 3.2900391 1.4799805 3.2900391 3.2900388z"/><path d="m53.3100586 5.2878637v6.579834c0 1.8100586-1.4799805 3.2900391-3.2900391 3.2900391h-.0097656c-1.8100586 0-3.2900391-1.4799805-3.2900391-3.2900391v-6.579834c0-1.8100584 1.4799805-3.2900388 3.2900391-3.2900388h.0097656c1.8100586 0 3.2900391 1.4799805 3.2900391 3.2900388z"/></g><g fill="#f99944"><path d="m18.2766113 2.0268776v13.1018064c1.6748047-.1486816 3.0031738-1.5490723 3.0031738-3.2609863v-6.579834c.0000001-1.7119138-1.3283691-3.1123044-3.0031738-3.2609861z"/><path d="m34.1098633 2.0085671v13.1384277c1.7607422-.0571289 3.1850586-1.505127 3.1850586-3.2792969v-6.579834c0-1.7741699-1.4243164-3.222412-3.1850586-3.2792968z"/><path d="m50.1098633 2.0068581v13.1418457c1.7680664-.0490723 3.2001953-1.501709 3.2001953-3.2810059v-6.579834c0-1.7792968-1.4321289-3.2319335-3.2001953-3.2810058z"/></g></g><path d="m8.9799805 31.6152573v11.8701172c0 1.2099609-.9702148 2.1899414-2.1801758 2.1899414s-2.1899414-.9799805-2.1899414-2.1899414v-11.8701172c0-1.2099609.9799805-2.1899414 2.1899414-2.1899414.6000977 0 1.1501465.2399902 1.5400391.6401367.3999023.3999023.6401367.9399414.6401367 1.5498047z" fill="#fff"/></g></svg>