<?xml version="1.0" encoding="utf-8"?>
<!-- Generator: Adobe Illustrator 28.4.1, SVG Export Plug-In . SVG Version: 6.00 Build 0)  -->
<svg version="1.1" id="Layer_1" xmlns="http://www.w3.org/2000/svg" xmlns:xlink="http://www.w3.org/1999/xlink" x="0px" y="0px"
	 viewBox="0 0 140 140" style="enable-background:new 0 0 140 140;" xml:space="preserve">
<style type="text/css">
	.st0{fill:#2F3030;}
	.st1{fill:#F8F7F7;}
</style>
<g>
	<path class="st0" d="M130,44.5c-0.1,1.1,0.3,2.5-0.3,3.8c-0.1,0.3,0.1,0.5,0.2,0.7c0.4,0.4,0.4,1,0.3,1.5c-0.2,1.9-0.4,3.9-0.6,5.9
		c-0.3,2.5-0.4,5-0.7,7.4c-0.2,1.5-0.2,3-0.4,4.5c-0.2,2.6-0.4,5.3-0.6,7.9c-0.2,2-0.2,4-0.5,6c-0.2,1.8-0.1,3.6-0.5,5.4
		c-0.2,0.6,0.3,0.8,0.7,1.1c1,0.6,1.9,1.3,2.8,2c1.9,1.6,3.4,3.4,4.1,5.8c0.2,0.7,0.4,1.4,0.1,2.1c-0.2,0.6,0,1,0.6,1.4
		c0.7,0.4,1.3,0.8,1.8,1.4c1.7,1.9,0.9,4.2-0.3,6c-0.7,1-1.8,1.6-2.5,2.6c-0.6,0.9-0.6,1.8,0.1,2.6c1,1.2,1.9,2.3,2.9,3.5
		c0.9,1,0.7,2,0.4,3.1c-0.4,1.1-1.1,2-1.8,2.9c-1.8,2.1-3.9,3.9-6.4,5.3c-1.8,1-3.7,1.9-5.7,2.5c-1.3,0.4-2.7,0.4-4.1,0.3
		c-1.6-0.2-2.7-1.3-3.3-2.6c-0.6-1.3-1.5-1.6-2.8-1.5c-2.2,0.3-4.4,0.7-6.5,1.6c-1.1,0.5-1.9,1.1-2.7,2c-1.2,1.4-2.8,2-4.6,1.7
		c-2-0.3-3.9-0.9-5.7-1.9c-0.2-0.1-0.4-0.2-0.7-0.2c-27.1,0-54.2,0-81.2,0c-1.1,0-2.2,0.1-3.3,0.1c-2.2,0.1-3.8-0.8-3.9-3.5
		c-0.1-2.6-0.2-5.1-0.3-7.7c0-0.3-0.1-0.6-0.4-0.8c-0.6-0.7-0.6-1.4,0.1-2.1c0.3-0.3,0.3-0.6,0.3-1c0-1.1-0.2-2.2-0.2-3.4
		c-0.1-2.9-0.1-5.8-0.3-8.7c-0.1-2.2-0.2-4.4-0.3-6.6c-0.2-3.5-0.4-7.1-0.5-10.6C3.2,82.9,3,80.7,3,78.5c-0.1-2.3-0.2-4.6-0.3-7
		c-0.1-2.9-0.3-5.7-0.5-8.6c-0.2-3.1-0.4-6.1-0.6-9.2c-0.1-1.1,0-2.3-0.2-3.4c-0.1-0.5-0.1-1.1,0.3-1.5c0.1-0.1,0.1-0.3,0.1-0.5
		c-0.5-1.3-0.2-2.6-0.2-3.9c0.1-1.4,0.1-2.8,0.2-4.2c0.1-3.2,0.5-6.4,1.2-9.5c0.7-3.3,2-6.5,3.8-9.4c0.7-1.2,1.6-2.2,2.5-3.2
		c1.9-1.9,3.9-3.6,6.4-4.6c1.7-0.7,3.5-1.3,5.5-1.3c1.1,0,2.2-0.3,3.4,0c0.3,0.1,0.7,0,1,0.2c0.4,0.2,0.9,0.1,1.4-0.1
		c1.6-0.6,3.2-1.2,5-1.2c2.2,0,4.2,0.6,6.1,1.7c1.4,0.8,2.6,1.8,3.6,3.1c0.5,0.6,1,0.9,1.8,0.9c14.1,0,28.2,0,42.4,0
		c0.7,0,1.1-0.2,1.6-0.7c1.4-1.5,2.8-2.9,4.7-3.7c1.3-0.6,2.6-1,3.9-1.1c2.2-0.1,4.3,0,6.3,0.9c0.6,0.3,1.2,0.4,1.9,0.2
		c1.2-0.4,2.5-0.1,3.7,0.1c1.7,0.2,3.3,0.5,4.9,1.1c1.7,0.7,3.4,1.6,4.9,2.6c1.7,1.2,3.4,2.4,4.7,4c1.9,2.2,3.5,4.7,4.7,7.3
		c1.2,2.6,1.9,5.4,2.3,8.3C129.9,38.7,130.1,41.4,130,44.5z M83.7,96c-0.2,0-0.3,0.1-0.4,0.2c-0.8,1.2-2,1.6-3.4,1.8
		c-2.1,0.3-4.2,0.6-6.3,0.9c-4.4,0.8-8.9,1.2-13.3,0.2c-2.6-0.6-5.4-0.8-8-1.3c-2.1-0.4-3.3-2-3.3-4.1c0-3.2,0-6.4,0-9.5
		c0-2.4,0-4.8,0-7.2c0-2.1,1.2-3.2,3.3-3.3c1.2,0,2.3,0,3.5,0c1,0,0.5-0.8,0.6-1.3c0.1-0.5-0.2-0.6-0.6-0.6c-1.3,0-2.5,0-3.8-0.1
		c-1.4-0.1-2.2-1-2.1-2.5c0.1-2.1,0.2-4.3,0.4-6.4c0.1-0.7-0.1-0.9-0.8-0.9c-8,0-16.1,0-24.1,0c-2.6,0-5.1,0-7.7,0
		c-0.7,0-0.9,0.2-0.8,0.9c0.1,0.8,0.1,1.6,0.1,2.4c0.8,16.2,1.7,32.4,2.5,48.6c0,0.7,0.2,0.9,0.9,0.9c15.4,0,30.9,0,46.3,0
		c3.8,0,7.7,0,11.5,0.1c0.9,0,1.6,0.7,1.6,1.5c0,0.8-0.5,1.2-1.5,1.2c-1.9,0-3.7,0-5.6,0c-17.3,0-34.5,0-51.8,0c-4.2,0-8.5,0-12.7,0
		c-0.4,0-0.9-0.1-0.8,0.6c0.1,2.4,0.2,4.9,0.4,7.3c0.1,1.1,0.2,1.2,1.3,1.1c17.2,0,34.3,0,51.5,0c9.8,0,19.6,0,29.4,0
		c0.2,0,0.5,0.1,0.6-0.1c0.1-0.3-0.2-0.4-0.4-0.5c-2.3-2.2-4-4.9-5.3-7.8c-3-7-3.5-14.2-1.1-21.5C83.6,96.5,83.8,96.2,83.7,96z
		 M65.6,47.2C65.6,47.2,65.6,47.2,65.6,47.2c16.2,0,32.4,0,48.7,0c0.6,0,0.8-0.1,0.8-0.8c-0.2-4-0.2-8-0.6-12.1
		c-0.7-8.4-5.1-14.6-12.1-18.9c-3.7-2.3-7.7-1.9-11,0.9c-0.2,0.1-0.5,0.3-0.4,0.5c0.1,0.3,0.4,0.1,0.6,0.2c1.3,0,2.6,0,3.8,0
		c0.8,0,1.4,0.6,1.4,1.4c0,0.8-0.5,1.3-1.5,1.3c-6.2,0-12.4-0.1-18.6-0.1c-14.6,0-29.1,0-43.7,0.1c-0.4,0-0.8,0-1.2-0.1
		c-0.6-0.1-1-0.4-1.1-1c-0.1-0.6,0.2-1.1,0.8-1.4c0.3-0.2,0.6-0.2,1-0.2c1.8,0,3.6,0,5.4,0c0.2,0,0.5,0.1,0.6-0.2
		c0.1-0.3-0.2-0.4-0.4-0.5c-3.6-2.9-7.7-3-11.5-0.5c-2.2,1.4-3.9,3.3-5.5,5.3c-2.6,3.6-3.9,7.7-4.3,12.1c-0.5,4.4-0.4,8.8-0.6,13.2
		c0,0.7,0.2,0.8,0.8,0.8C33.2,47.2,49.4,47.2,65.6,47.2z M85,107.2c0.3,5.6,2.1,12,7.2,17c2.1,2,4.4,3.6,7.2,4.3
		c1.7,0.4,2.3,0.1,3.3-1.3c0.5-0.7,1-1.2,1.7-1.6c3.2-1.4,6.5-2.2,10-2.2c1.9,0,3.2,0.9,4,2.6c0.7,1.6,0.8,1.6,2.5,1.4
		c2.1-0.2,2-0.2,1.2-2.1c-0.5-1-1-2-1.3-3.1c-0.1-0.2-0.2-0.6,0.1-0.7c0.3-0.1,0.5,0.2,0.6,0.5c0.5,0.9,1,1.9,1.5,2.8
		c1,1.7,1,1.7,2.8,0.9c0.4-0.2,0.5-0.4,0.3-0.8c-0.3-0.6-0.6-1.2-1-1.8c-0.6-1.2-1.2-2.3-1.8-3.5c-0.1-0.2-0.2-0.4,0-0.6
		c0.3-0.2,0.5-0.1,0.6,0.2c0.1,0.2,0.2,0.3,0.3,0.5c0.8,1.4,1.7,2.9,2.5,4.3c0.7,1.1,0.7,1,1.9,0.5c1.4-0.7,2.2-2,3.3-3
		c0.3-0.3,0.1-0.6-0.1-0.8c-0.8-1.2-1.7-2.5-2.5-3.7c-0.2-0.2-0.5-0.5-0.2-0.8c0.3-0.3,0.5,0.1,0.8,0.3c0.1,0.1,0.2,0.3,0.3,0.4
		c0.7,0.9,1.5,1.8,2.2,2.7c0.4,0.5,0.7,0.5,1.1,0.1c0.2-0.3,0.5-0.6,0.8-0.8c0.9-0.8,0.9-0.9,0.1-1.8c-0.9-1-1.8-2-2.6-3.1
		c-1.6-2.3-1.4-4.6,0.8-6.4c0.8-0.7,1.6-1.6,2.1-2.5c0.6-1.1,0.5-1.7-0.4-2.5c-0.2-0.2-0.4-0.3-0.6-0.5c-0.8-0.6-0.8-0.6-1.2,0.3
		c-1.3,2.5-4.3,4.7-7.5,4.1c-3-0.5-5.2-2.3-6.9-4.8c-2.8-4.2-2.4-11.2,4.4-13.2c0.1,0,0.3-0.1,0.4-0.2c0-0.2-0.2-0.3-0.3-0.4
		c-2-1.6-4.2-2.9-6.6-3.8c-5.6-2.1-11.2-1.7-16.6,0.4C91.5,87.8,84.9,95.6,85,107.2z M83.9,95.4c0.6-0.5,0.7-1.1,1.1-1.7
		c5.7-9.9,15.6-14.7,26.9-13.5c0.5,0.1,0.9,0.1,0.9-0.6c0.3-5.6,0.8-11.1,1.3-16.6c0.1-0.7,0-0.9-0.8-0.9c-4,0-8,0-12,0
		c-6.2,0-12.5,0-18.7,0c-0.6,0-0.9,0.1-0.8,0.8c0.2,2.3,0.3,4.7,0.4,7.1c0.1,1.2-0.6,1.9-1.8,1.9c-1.2,0-2.3,0-3.5,0
		c-0.4,0-1-0.1-0.9,0.6c0.1,0.6-0.2,1.3,0.8,1.2c1.2-0.1,2.4,0,3.5,0c2.1,0,3.5,1.4,3.5,3.5c0,4.4,0,8.7,0,13.1
		C83.9,92,84,93.7,83.9,95.4z M66.3,75.4C66.3,75.4,66.3,75.4,66.3,75.4c-4.6,0-9.2,0-13.8,0c-1.4,0-1.9,0.6-1.9,1.9
		c0,5.2,0,10.5,0,15.7c0,1.9,0.7,2.8,2.6,3c4.1,0.6,8.1,1.2,12.2,1.8c0.5,0.1,1,0.1,1.5,0c4.2-0.7,8.4-1.3,12.6-1.9
		c1.8-0.2,2.5-0.9,2.5-2.8c0-1.6,0-3.1,0-4.7c0-3.7,0-7.4-0.1-11.1c0-1.1-0.4-1.7-1.3-1.9c-0.4-0.1-0.8-0.1-1.1-0.1
		C75.1,75.4,70.7,75.4,66.3,75.4z M15.1,88.6c-0.3-4-0.4-8-0.6-12c-0.2-4.6-0.5-9.2-0.7-13.8c0-0.4,0-0.7-0.6-0.7
		c-2.6,0-5.3,0-7.9,0c-0.5,0-0.6,0.1-0.6,0.6c0.1,1.9,0.3,3.8,0.3,5.7c0.7,15.3,1.5,30.5,2,45.8c0,0.5,0.2,0.7,0.7,0.7
		c2.5,0,5.1,0,7.6,0c1,0,1,0,1-1C16,105.4,15.6,97,15.1,88.6z M27.4,50C27.4,50,27.4,50,27.4,50c-7.5,0-15.1,0-22.6,0
		c-0.6,0-0.8,0.1-0.8,0.8c0.2,2.6,0.4,5.3,0.5,7.9c0,0.7,0.2,0.9,0.9,0.9c6.2,0,12.3,0,18.5,0c8.5,0,17.1,0,25.6,0
		c0.5,0,0.7-0.1,0.7-0.6c0.1-2.8,0.3-5.5,0.5-8.3c0-0.6-0.1-0.7-0.7-0.7C42.5,50,34.9,50,27.4,50z M104.5,50
		C104.5,50,104.5,50,104.5,50c-7.5,0-15,0-22.5,0c-0.6,0-0.7,0.2-0.6,0.7c0.1,2.7,0.3,5.5,0.4,8.2c0,0.6,0.3,0.7,0.8,0.7
		c4,0,8.1,0,12.1,0c10.5,0,20.9,0,31.4,0c0.6,0,0.8-0.1,0.9-0.7c0.2-2.7,0.4-5.4,0.7-8c0.1-0.7-0.1-0.8-0.8-0.8
		C119.4,50,111.9,50,104.5,50z M66.1,49.9C66.1,50,66.1,50,66.1,49.9c-3.9,0-7.8,0-11.8,0c-0.5,0-0.7,0.2-0.7,0.6
		c0,1.3-0.1,2.5-0.2,3.8c-0.3,4.7-0.5,9.4-0.8,14.1c0,0.7,0.2,0.9,0.8,0.9c0.7,0,1.4,0,2.1,0c0.5,0,0.8-0.1,0.8-0.7
		c0-0.7,0.1-1.4,0.1-2.1c0.4-3.7,2.2-6.6,5.6-8.3c0.4-0.2,0.5-0.4,0.5-0.8c0-0.8,0.2-1.5,0.6-2.2c0.7-1.3,1.6-2.2,3.2-2.2
		c1.5,0,2.4,1,3,2.3c0.3,0.6,0.5,1.2,0.4,1.9c0,0.7,0.3,1,0.8,1.4c2.6,1.5,4.2,3.8,4.8,6.7c0.2,1.1,0.3,2.2,0.3,3.4
		c0,0.5,0.2,0.7,0.7,0.7c0.7,0,1.4,0,2.2,0c0.6,0,0.7-0.2,0.7-0.8c-0.5-5.9-0.6-11.8-0.9-17.7c0-0.7-0.2-0.9-0.9-0.9
		C73.8,50,69.9,49.9,66.1,49.9z M106.7,14.9c0.1,0.4,0.3,0.5,0.5,0.6c6.2,4.8,9.6,11.1,10.2,18.9c0.3,4,0.4,7.9,0.5,11.9
		c0,0.7,0.2,0.9,0.9,0.9c2.7,0,5.3,0,8,0c0.5,0,0.7-0.2,0.7-0.7c-0.1-3.8-0.1-7.6-0.7-11.3c-1.2-7.7-5-13.7-11.7-17.8
		C112.5,15.9,109.8,15.1,106.7,14.9z M23.3,14.9c-0.2-0.2-0.3-0.2-0.5-0.2c-3.1,0-5.9,0.8-8.4,2.5c-4.3,2.9-6.8,7.2-8.3,12
		c-1.8,5.7-1.7,11.6-1.9,17.4c0,0.4,0.1,0.5,0.5,0.5c2.6,0,5.3,0,7.9,0c0.6,0,0.7-0.2,0.7-0.7c0.1-4.6,0.2-9.3,0.7-13.9
		c0.6-6.4,3.1-11.8,7.7-16.3C22.2,15.8,22.8,15.3,23.3,14.9z M121.8,62.1C121.8,62.1,121.8,62.1,121.8,62.1c-1.3,0-2.7,0-4,0
		c-0.6,0-0.8,0.1-0.8,0.7c-0.5,5.8-1,11.6-1.5,17.5c0,0.4,0.1,0.6,0.4,0.7c2.9,1,5.7,2.4,8.1,4.3c0.5,0.4,0.7,0.2,0.7-0.4
		c0.1-1.5,0.2-3.1,0.4-4.6c0.5-5.8,0.9-11.6,1.4-17.5c0-0.6,0-0.8-0.7-0.8C124.4,62.2,123.1,62.1,121.8,62.1z M131.3,97.6
		c0-0.7-0.1-1.4-0.5-2c-0.9-1.5-2.2-2.8-3.7-3.7c-0.7-0.4-1.5-0.9-2.3-0.8c-2.9,0.3-5.1,2.4-5.2,5c-0.2,3.3,2.4,6.9,5.6,7.7
		c1.4,0.4,2.7,0.1,3.7-0.8C130.5,101.6,131.2,99.7,131.3,97.6z M66.1,69.3C66.1,69.3,66.1,69.3,66.1,69.3c2,0,3.9,0,5.9,0
		c0.4,0,0.7,0,0.7-0.5c-0.1-0.9-0.1-1.8-0.2-2.8c-0.2-1.8-1.2-3.2-2.6-4.3c-0.3-0.2-0.6-0.3-0.9,0c-1.8,1.5-3.5,1.5-5.3,0
		c-0.4-0.3-0.7-0.3-1.1,0c-1.3,1-2.3,2.2-2.8,3.8c-0.3,1-0.3,2-0.4,3c-0.1,0.6,0.1,0.8,0.8,0.8C62.2,69.3,64.1,69.3,66.1,69.3z
		 M68.6,58.1c0-1-0.1-1.9-0.7-2.8c-0.8-1.1-2.3-1.2-3,0c-0.9,1.5-1.1,3.2-0.4,4.9c0.3,0.7,0.9,1.2,1.7,1.2c0.9,0,1.5-0.3,2-1.1
		C68.5,59.7,68.6,58.9,68.6,58.1z M66,73.8C66,73.8,66,73.8,66,73.8c2,0,4,0,6,0c0.6,0,0.9-0.2,0.8-0.8c-0.1-0.5,0.2-1.1-0.8-1.1
		c-3.8,0-7.7,0-11.5,0c-1.2,0-1.1,0-1.2,1.1c0,0.5,0.1,0.7,0.7,0.7C62,73.7,64,73.8,66,73.8z"/>
	<path class="st1" d="M83.7,96c0.1,0.3-0.1,0.5-0.1,0.8c-2.3,7.3-1.8,14.5,1.1,21.5c1.3,3,3,5.6,5.3,7.8c0.2,0.1,0.5,0.3,0.4,0.5
		c-0.1,0.2-0.4,0.1-0.6,0.1c-9.8,0-19.6,0-29.4,0c-17.2,0-34.3,0-51.5,0c-1.1,0-1.2-0.1-1.3-1.1c-0.1-2.4-0.2-4.9-0.4-7.3
		c0-0.7,0.4-0.6,0.8-0.6c4.2,0,8.5,0,12.7,0c17.3,0,34.5,0,51.8,0c1.9,0,3.7,0,5.6,0c1,0,1.5-0.4,1.5-1.2c0-0.9-0.7-1.5-1.6-1.5
		c-3.8,0-7.7-0.1-11.5-0.1c-15.4,0-30.9,0-46.3,0c-0.7,0-0.9-0.2-0.9-0.9c-0.8-16.2-1.7-32.4-2.5-48.6c0-0.8,0-1.6-0.1-2.4
		c-0.1-0.7,0.1-0.9,0.8-0.9c2.6,0,5.1,0,7.7,0c8,0,16.1,0,24.1,0c0.7,0,0.9,0.2,0.8,0.9c-0.2,2.1-0.3,4.3-0.4,6.4
		c-0.1,1.4,0.7,2.4,2.1,2.5c1.3,0.1,2.5,0.1,3.8,0.1c0.4,0,0.7,0.1,0.6,0.6c-0.1,0.5,0.3,1.3-0.6,1.3c-1.2,0-2.3,0-3.5,0
		c-2.1,0.1-3.2,1.2-3.3,3.3c0,2.4,0,4.8,0,7.2c0,3.2,0,6.4,0,9.5c0,2.1,1.3,3.7,3.3,4.1c2.7,0.5,5.4,0.7,8,1.3
		c4.5,1,8.9,0.5,13.3-0.2c2.1-0.4,4.2-0.6,6.3-0.9c1.3-0.2,2.5-0.6,3.4-1.8C83.4,96.1,83.5,95.9,83.7,96z"/>
	<path class="st1" d="M65.6,47.2c-16.2,0-32.4,0-48.7,0c-0.6,0-0.8-0.1-0.8-0.8c0.2-4.4,0.2-8.8,0.6-13.2c0.5-4.4,1.7-8.5,4.3-12.1
		c1.5-2.1,3.3-3.9,5.5-5.3c3.8-2.5,8-2.3,11.5,0.5c0.2,0.1,0.5,0.2,0.4,0.5C38.5,17.1,38.2,17,38,17c-1.8,0-3.6,0-5.4,0
		c-0.3,0-0.7,0-1,0.2c-0.5,0.3-0.8,0.8-0.8,1.4c0.1,0.6,0.5,0.9,1.1,1c0.4,0.1,0.8,0.1,1.2,0.1c14.6,0,29.1-0.1,43.7-0.1
		c6.2,0,12.4,0.1,18.6,0.1c0.9,0,1.5-0.4,1.5-1.3c0-0.8-0.6-1.4-1.4-1.4c-1.3,0-2.6,0-3.8,0c-0.2,0-0.5,0.1-0.6-0.2
		c-0.1-0.2,0.2-0.4,0.4-0.5c3.3-2.8,7.2-3.2,11-0.9c7,4.3,11.4,10.5,12.1,18.9c0.4,4,0.4,8,0.6,12.1c0,0.6-0.2,0.8-0.8,0.8
		C98.1,47.2,81.8,47.2,65.6,47.2C65.6,47.2,65.6,47.2,65.6,47.2z"/>
	<path class="st1" d="M85,107.2c-0.2-11.6,6.4-19.4,14.5-22.6c5.4-2.1,11-2.5,16.6-0.4c2.4,0.9,4.6,2.3,6.6,3.8
		c0.1,0.1,0.3,0.2,0.3,0.4c0,0.2-0.2,0.2-0.4,0.2c-6.8,1.9-7.2,9-4.4,13.2c1.7,2.5,3.9,4.3,6.9,4.8c3.2,0.5,6.2-1.6,7.5-4.1
		c0.4-0.9,0.4-0.9,1.2-0.3c0.2,0.2,0.4,0.3,0.6,0.5c0.9,0.8,1,1.4,0.4,2.5c-0.6,1-1.3,1.8-2.1,2.5c-2.1,1.8-2.4,4.1-0.8,6.4
		c0.8,1.1,1.7,2.1,2.6,3.1c0.8,0.9,0.7,1-0.1,1.8c-0.3,0.3-0.6,0.5-0.8,0.8c-0.4,0.5-0.7,0.4-1.1-0.1c-0.7-0.9-1.4-1.8-2.2-2.7
		c-0.1-0.1-0.2-0.3-0.3-0.4c-0.2-0.2-0.4-0.6-0.8-0.3c-0.4,0.3,0,0.5,0.2,0.8c0.8,1.2,1.7,2.5,2.5,3.7c0.2,0.2,0.4,0.5,0.1,0.8
		c-1.1,1-1.9,2.3-3.3,3c-1.2,0.6-1.2,0.6-1.9-0.5c-0.9-1.4-1.7-2.9-2.5-4.3c-0.1-0.2-0.2-0.4-0.3-0.5c-0.2-0.2-0.4-0.4-0.6-0.2
		c-0.3,0.2-0.1,0.4,0,0.6c0.6,1.2,1.2,2.3,1.8,3.5c0.3,0.6,0.6,1.2,1,1.8c0.2,0.4,0.1,0.6-0.3,0.8c-1.8,0.8-1.8,0.8-2.8-0.9
		c-0.5-0.9-1-1.8-1.5-2.8c-0.1-0.3-0.3-0.6-0.6-0.5c-0.4,0.1-0.2,0.5-0.1,0.7c0.3,1.1,0.9,2.1,1.3,3.1c0.9,1.9,0.9,1.9-1.2,2.1
		c-1.7,0.2-1.8,0.1-2.5-1.4c-0.8-1.8-2.1-2.6-4-2.6c-3.5,0-6.8,0.8-10,2.2c-0.8,0.3-1.3,0.9-1.7,1.6c-1,1.4-1.6,1.7-3.3,1.3
		c-2.8-0.7-5.2-2.3-7.2-4.3C87.1,119.2,85.3,112.9,85,107.2z M118.6,112.1c-0.1-5.3-2.7-9.7-8.6-9.9c-5-0.1-9.4,4.1-9.6,8.9
		c-0.1,5.3,3.5,9.4,8.6,9.5C114.5,120.9,118.4,117.3,118.6,112.1z M120.7,110.6c0.1,1.1,0.1,2.2,0.7,3.2c0.2,0.3,0.5,0.5,1,0.4
		c0.4-0.1,0.6-0.4,0.7-0.8c0.1-0.4,0-0.7-0.2-1.1c-0.1-0.4-0.3-0.8-0.4-1.2c0-0.2-0.2-0.4,0-0.5c0.2-0.2,0.4,0,0.6,0
		c0.6,0.3,1.2,0.6,1.8,0.8c0.5,0.1,0.9,0.1,1.2-0.4c0.3-0.5-0.1-0.8-0.4-1.1c-0.9-0.7-1.8-1.3-2.9-1.7c-1.3-0.4-1.9,0-2.1,1.3
		C120.8,109.8,120.8,110.3,120.7,110.6z"/>
	<path class="st1" d="M83.9,95.4c0-1.7,0-3.3,0-5c0-4.4,0-8.7,0-13.1c0-2.1-1.4-3.5-3.5-3.5c-1.2,0-2.4-0.1-3.5,0
		c-1.1,0.1-0.8-0.6-0.8-1.2c-0.1-0.8,0.5-0.6,0.9-0.6c1.2,0,2.3,0,3.5,0c1.2,0,1.9-0.7,1.8-1.9c-0.1-2.4-0.2-4.7-0.4-7.1
		c-0.1-0.7,0.2-0.8,0.8-0.8c6.2,0,12.5,0,18.7,0c4,0,8,0,12,0c0.7,0,0.8,0.2,0.8,0.9c-0.5,5.5-1,11.1-1.3,16.6
		c0,0.7-0.4,0.6-0.9,0.6C100.6,79,90.7,83.8,85,93.7C84.7,94.2,84.5,94.9,83.9,95.4z"/>
	<path class="st1" d="M66.3,75.4c4.4,0,8.8,0,13.2,0c0.4,0,0.8,0,1.1,0.1c0.9,0.2,1.3,0.8,1.3,1.9c0,3.7,0.1,7.4,0.1,11.1
		c0,1.6,0,3.1,0,4.7c0,1.8-0.7,2.5-2.5,2.8c-4.2,0.6-8.4,1.2-12.6,1.9c-0.5,0.1-1,0.1-1.5,0c-4.1-0.6-8.1-1.2-12.2-1.8
		c-1.9-0.3-2.6-1.1-2.6-3c0-5.2,0-10.5,0-15.7c0-1.4,0.5-1.9,1.9-1.9C57.2,75.4,61.7,75.4,66.3,75.4C66.3,75.4,66.3,75.4,66.3,75.4z
		 M66.2,95.4c0.5,0,1-0.2,1.5-0.2c0.8-0.1,1-0.4,0.9-1.2c-0.3-2.1-0.5-4.2-0.7-6.3c0-0.3-0.1-0.6,0.3-0.8c1.3-0.7,1.9-2.3,1.5-3.7
		c-0.4-1.4-1.8-2.5-3.3-2.6c-1.5,0-2.9,1-3.4,2.5c-0.4,1.4,0.2,3,1.4,3.8c0.4,0.3,0.5,0.6,0.5,1c-0.2,1.8-0.4,3.6-0.6,5.4
		C64,95.3,64.1,95.4,66.2,95.4z M53,91.9c-0.6,0-1.1,0.5-1.1,1.1c0,0.7,0.6,1.4,1.1,1.4c0.7,0,1.2-0.6,1.2-1.3
		C54.2,92.5,53.6,91.9,53,91.9z M79.3,76.8c-0.5,0-1,0.5-1,1.1c0,0.7,0.5,1.3,1.2,1.3c0.7,0,1.1-0.4,1.1-1
		C80.7,77.5,80.1,76.9,79.3,76.8z M54.2,78.1c0-0.6-0.5-1.1-1.1-1.2c-0.6,0-1.2,0.6-1.2,1.3c0,0.6,0.5,1.2,1.1,1.2
		C53.6,79.4,54.2,78.8,54.2,78.1z M80,94.4c0.3,0,0.6-0.1,0.7-0.4c0.1-0.4-0.2-0.4-0.5-0.4c-0.2,0-0.3-0.2-0.3-0.4
		c0-0.2,0.2-0.3,0.4-0.4c0.2,0,0.5,0,0.5-0.3c0-0.3-0.2-0.5-0.4-0.6c-0.4-0.2-0.8-0.2-1.2,0.1c-0.4,0.4-0.6,0.9-0.4,1.5
		C79.1,94.1,79.4,94.4,80,94.4z"/>
	<path class="st1" d="M15.1,88.6c0.5,8.4,0.9,16.8,1.4,25.3c0.1,1,0.1,1-1,1c-2.5,0-5.1,0-7.6,0c-0.5,0-0.7-0.2-0.7-0.7
		c-0.6-15.3-1.4-30.5-2-45.8c-0.1-1.9-0.2-3.8-0.3-5.7c0-0.5,0.1-0.6,0.6-0.6c2.6,0,5.3,0,7.9,0c0.5,0,0.5,0.3,0.6,0.7
		c0.2,4.6,0.4,9.2,0.7,13.8C14.7,80.6,14.8,84.6,15.1,88.6z"/>
	<path class="st1" d="M27.4,50c7.6,0,15.2,0,22.7,0c0.5,0,0.7,0.1,0.7,0.7c-0.2,2.8-0.4,5.5-0.5,8.3c0,0.5-0.3,0.6-0.7,0.6
		c-8.5,0-17.1,0-25.6,0c-6.2,0-12.3,0-18.5,0c-0.7,0-0.9-0.2-0.9-0.9C4.4,56,4.2,53.4,4,50.7c-0.1-0.7,0.2-0.8,0.8-0.8
		C12.3,50,19.8,50,27.4,50C27.4,50,27.4,50,27.4,50z"/>
	<path class="st1" d="M104.5,50c7.4,0,14.9,0,22.3,0c0.6,0,0.8,0.1,0.8,0.8c-0.3,2.7-0.5,5.4-0.7,8c0,0.6-0.3,0.7-0.9,0.7
		c-10.5,0-20.9,0-31.4,0c-4,0-8.1,0-12.1,0c-0.5,0-0.8-0.1-0.8-0.7c-0.1-2.7-0.2-5.5-0.4-8.2c0-0.5,0.1-0.7,0.6-0.7
		C89.5,50,97,50,104.5,50C104.5,50,104.5,50,104.5,50z"/>
	<path class="st1" d="M66.1,49.9c3.8,0,7.6,0,11.5,0c0.7,0,0.9,0.2,0.9,0.9c0.3,5.9,0.4,11.8,0.9,17.7c0,0.6-0.1,0.8-0.7,0.8
		c-0.7,0-1.4,0-2.2,0c-0.5,0-0.7-0.2-0.7-0.7c0-1.1-0.1-2.2-0.3-3.4c-0.6-3-2.2-5.2-4.8-6.7c-0.6-0.3-0.9-0.7-0.8-1.4
		c0-0.6-0.2-1.3-0.4-1.9c-0.6-1.3-1.5-2.2-3-2.3c-1.5,0-2.5,0.9-3.2,2.2c-0.4,0.7-0.6,1.4-0.6,2.2c0,0.4-0.2,0.6-0.5,0.8
		c-3.4,1.7-5.2,4.5-5.6,8.3c-0.1,0.7-0.2,1.4-0.1,2.1c0,0.6-0.2,0.8-0.8,0.7c-0.7,0-1.4,0-2.1,0c-0.7,0-0.9-0.1-0.8-0.9
		c0.3-4.7,0.5-9.4,0.8-14.1c0.1-1.3,0.2-2.5,0.2-3.8c0-0.5,0.2-0.6,0.7-0.6C58.3,50,62.2,50,66.1,49.9C66.1,50,66.1,50,66.1,49.9z"
		/>
	<path class="st1" d="M106.7,14.9c3,0.2,5.8,1,8.4,2.5c6.8,4,10.5,10.1,11.7,17.8c0.6,3.8,0.6,7.5,0.7,11.3c0,0.5-0.2,0.7-0.7,0.7
		c-2.7,0-5.3,0-8,0c-0.7,0-0.9-0.2-0.9-0.9c-0.1-4-0.1-7.9-0.5-11.9c-0.6-7.8-4-14.1-10.2-18.9C107,15.4,106.8,15.3,106.7,14.9z"/>
	<path class="st1" d="M23.3,14.9c-0.5,0.5-1.1,0.9-1.6,1.4c-4.6,4.5-7.1,10-7.7,16.3c-0.5,4.6-0.6,9.3-0.7,13.9
		c0,0.5-0.1,0.7-0.7,0.7c-2.6,0-5.3,0-7.9,0c-0.4,0-0.5-0.1-0.5-0.5c0.2-5.9,0.1-11.8,1.9-17.4c1.5-4.9,4-9.1,8.3-12
		c2.5-1.7,5.4-2.5,8.4-2.5C23,14.7,23.1,14.6,23.3,14.9z"/>
	<path class="st1" d="M121.8,62.1c1.3,0,2.7,0,4,0c0.6,0,0.7,0.2,0.7,0.8c-0.5,5.8-1,11.6-1.4,17.5c-0.1,1.5-0.3,3.1-0.4,4.6
		c0,0.5-0.1,0.8-0.7,0.4c-2.4-1.9-5.2-3.3-8.1-4.3c-0.4-0.1-0.4-0.3-0.4-0.7c0.5-5.8,1-11.6,1.5-17.5c0.1-0.6,0.3-0.8,0.8-0.7
		C119.1,62.2,120.4,62.1,121.8,62.1C121.8,62.1,121.8,62.1,121.8,62.1z"/>
	<path class="st1" d="M131.3,97.6c-0.1,2.1-0.8,3.9-2.4,5.4c-1.1,1-2.3,1.2-3.7,0.8c-3.2-0.8-5.8-4.4-5.6-7.7c0.2-2.6,2.3-4.7,5.2-5
		c0.8-0.1,1.6,0.4,2.3,0.8c1.6,0.9,2.8,2.1,3.7,3.7C131.2,96.2,131.3,96.9,131.3,97.6z"/>
	<path class="st1" d="M66.1,69.3c-2,0-3.9,0-5.9,0c-0.6,0-0.8-0.2-0.8-0.8c0.1-1,0.1-2,0.4-3c0.5-1.6,1.4-2.8,2.8-3.8
		c0.4-0.3,0.7-0.3,1.1,0c1.8,1.5,3.5,1.5,5.3,0c0.4-0.3,0.6-0.2,0.9,0c1.4,1.1,2.4,2.5,2.6,4.3c0.1,0.9,0.1,1.8,0.2,2.8
		c0.1,0.6-0.3,0.5-0.7,0.5C70.1,69.3,68.1,69.3,66.1,69.3C66.1,69.3,66.1,69.3,66.1,69.3z"/>
	<path class="st1" d="M68.6,58.1c0,0.8,0,1.6-0.5,2.4c-0.5,0.7-1.1,1.1-2,1.1c-0.8,0-1.4-0.5-1.7-1.2c-0.7-1.7-0.5-3.4,0.4-4.9
		c0.7-1.2,2.2-1.1,3,0C68.5,56.1,68.5,57.1,68.6,58.1z"/>
	<path class="st1" d="M66,73.8c-2,0-4,0-6,0c-0.6,0-0.7-0.2-0.7-0.7c0-1.1,0-1.1,1.2-1.1c3.8,0,7.7,0,11.5,0c0.9,0,0.7,0.6,0.8,1.1
		c0.1,0.6-0.2,0.8-0.8,0.8C70,73.7,68,73.8,66,73.8C66,73.8,66,73.8,66,73.8z"/>
	<path class="st0" d="M118.6,112.1c-0.1,5.2-4.1,8.7-9.6,8.6c-5.1-0.1-8.8-4.2-8.6-9.5c0.1-4.8,4.6-9,9.6-8.9
		C115.9,102.4,118.5,106.8,118.6,112.1z M115.8,112c-0.3-4.7-2.1-6.9-6-6.9c-3.7,0-6.7,3.1-6.6,6.9c0,3.6,2.7,6,6.5,6
		C113.3,117.9,115.8,115.5,115.8,112z"/>
	<path class="st0" d="M120.7,110.6c0-0.3,0-0.7,0.1-1.2c0.2-1.3,0.8-1.8,2.1-1.3c1.1,0.4,2,1,2.9,1.7c0.3,0.3,0.7,0.6,0.4,1.1
		c-0.3,0.4-0.7,0.5-1.2,0.4c-0.7-0.2-1.2-0.5-1.8-0.8c-0.2-0.1-0.4-0.2-0.6,0c-0.1,0.1,0,0.3,0,0.5c0.1,0.4,0.3,0.8,0.4,1.2
		c0.1,0.3,0.2,0.7,0.2,1.1c-0.1,0.4-0.3,0.7-0.7,0.8c-0.4,0.1-0.7-0.1-1-0.4C120.8,112.8,120.8,111.7,120.7,110.6z"/>
	<path class="st0" d="M66.2,95.4c-2.1,0-2.2-0.1-1.9-2.1c0.2-1.8,0.4-3.6,0.6-5.4c0.1-0.5,0-0.7-0.5-1c-1.2-0.8-1.8-2.4-1.4-3.8
		c0.4-1.4,1.9-2.5,3.4-2.5c1.5,0,2.9,1.1,3.3,2.6c0.4,1.4-0.2,3-1.5,3.7c-0.4,0.2-0.4,0.5-0.3,0.8c0.2,2.1,0.4,4.2,0.7,6.3
		c0.1,0.8-0.1,1.2-0.9,1.2C67.2,95.3,66.7,95.5,66.2,95.4z"/>
	<path class="st0" d="M53,91.9c0.6,0,1.2,0.6,1.3,1.2c0,0.7-0.5,1.3-1.2,1.3c-0.6,0-1.1-0.7-1.1-1.4C51.9,92.4,52.4,91.9,53,91.9z"
		/>
	<path class="st0" d="M79.3,76.8c0.7,0,1.3,0.7,1.3,1.4c0,0.6-0.4,1-1.1,1c-0.7,0-1.2-0.7-1.2-1.3C78.4,77.3,78.8,76.8,79.3,76.8z"
		/>
	<path class="st0" d="M54.2,78.1c0,0.7-0.5,1.2-1.2,1.3c-0.5,0-1.1-0.6-1.1-1.2c0-0.7,0.6-1.3,1.2-1.3C53.7,77,54.2,77.5,54.2,78.1z
		"/>
	<path class="st0" d="M80,94.4c-0.5-0.1-0.9-0.4-1.1-0.9c-0.2-0.6-0.1-1.1,0.4-1.5c0.4-0.3,0.8-0.3,1.2-0.1c0.2,0.1,0.4,0.3,0.4,0.6
		c0,0.3-0.3,0.2-0.5,0.3c-0.2,0-0.4,0.2-0.4,0.4c0,0.2,0.1,0.4,0.3,0.4c0.2,0.1,0.6,0,0.5,0.4C80.6,94.4,80.3,94.4,80,94.4z"/>
	<path class="st1" d="M115.8,112c0,3.5-2.5,6-6.1,6c-3.8,0-6.4-2.4-6.5-6c0-3.8,2.9-6.9,6.6-6.9C113.6,105.1,115.5,107.3,115.8,112z
		"/>
</g>
</svg>
