<svg width="34" height="34" viewBox="0 0 34 34" fill="none" xmlns="http://www.w3.org/2000/svg">
<path d="M17 34C26.3888 34 34 26.3888 34 17C34 7.61116 26.3888 0 17 0C7.61116 0 0 7.61116 0 17C0 26.3888 7.61116 34 17 34Z" fill="#057FD4"/>
<path d="M10.6099 19.2482L12.4304 24.8167C12.5597 25.2125 13.0469 25.3538 13.368 25.0887L18.805 20.6004C18.805 20.6004 13.0274 18.3468 13.0274 18.4697C13.0274 18.5926 10.6099 19.2482 10.6099 19.2482Z" fill="#B5D1DB"/>
<path d="M24.9543 8.54504C21.4037 9.94947 9.94292 14.6458 5.60519 16.4252C5.03243 16.66 5.0668 17.4817 5.65652 17.6696L10.6092 19.2472L12.424 24.798C12.4969 25.0212 12.6812 25.1652 12.8869 25.2039C13.0538 25.2352 13.3001 20.7087 13.3001 20.7087C13.3001 20.7087 18.5066 24.5699 20.9762 26.3935C21.5847 26.8428 22.4534 26.5049 22.5975 25.7625C23.3332 21.971 25.1727 12.4904 25.8015 9.24943C25.8962 8.76222 25.416 8.36252 24.9543 8.54504Z" fill="white"/>
<path d="M12.8877 25.1957C13.0546 25.2271 13.3008 20.7005 13.3008 20.7005L21.8543 12.6661C21.9121 12.6118 21.8431 12.5202 21.7749 12.5609L10.6099 19.2391L12.4247 24.7898C12.4978 25.013 12.6821 25.157 12.8877 25.1957Z" fill="#D6E2EA"/>
<path opacity="0.5" d="M17 34C26.3888 34 34 26.3888 34 17C34 7.61116 26.3888 0 17 0C7.61116 0 0 7.61116 0 17C0 26.3888 7.61116 34 17 34Z" fill="url(#paint0_linear_44_177)"/>
<defs>
<linearGradient id="paint0_linear_44_177" x1="17" y1="2.99997e-05" x2="17.5736" y2="31.6324" gradientUnits="userSpaceOnUse">
<stop stop-color="white"/>
<stop offset="0.168443" stop-color="white" stop-opacity="0.7394"/>
<stop offset="1" stop-color="white" stop-opacity="0"/>
</linearGradient>
</defs>
</svg>
