<?xml version="1.0" encoding="utf-8"?>
<!-- Generator: Adobe Illustrator 28.4.1, SVG Export Plug-In . SVG Version: 6.00 Build 0)  -->
<svg version="1.1" id="Layer_1" xmlns="http://www.w3.org/2000/svg" xmlns:xlink="http://www.w3.org/1999/xlink" x="0px" y="0px"
	 viewBox="0 0 800 800" style="enable-background:new 0 0 800 800;" xml:space="preserve">
<style type="text/css">
	.st0{fill-rule:evenodd;clip-rule:evenodd;fill:#FED701;}
</style>
<g id="Page-1">
	<g id="add" transform="translate(42.666667, 64.000000)">
		<path id="Combined-Shape" class="st0" d="M595.1,402.7c-39.9,65.2-99,135.4-177.3,210.8l-23.4,22.1c-4,3.7-8,7.4-12.1,11.2
			l-25,22.6c-12.8-11.3-25.1-22.6-37.1-33.7l-23.4-22.1c-78.3-75.4-137.4-145.7-177.3-210.8l79.8,0
			c35.4,50.1,83.3,104.6,144.2,163.2l13.8,13.1l2.3-2.2c66.3-62.7,118.1-120.9,155.7-174.1L595.1,402.7z M257.3,128.1l100,200
			l50-100l37.3,74.5h246.1v66.7H411.3l-53.9,107.9l-100-200l-46.1,92.1H24v-66.7h146L257.3,128.1z M477.3,36
			c99.4,0,180,80.6,180,180c0,17.3-1.9,35-5.8,53.3l-68.5,0c4.4-16.3,6.9-31.9,7.5-46.7l0.1-6.6c0-62.6-50.7-113.3-113.3-113.3
			c-25.8,0-50,8.5-69.7,24l-5.8,4.8l-44.5,39.9l-44.5-39.8c-20.7-18.5-47.2-28.9-75.6-28.9C174.7,102.7,124,153.4,124,216
			c0,16.8,2.5,34.6,7.6,53.3l-68.5,0c-3.8-18.3-5.8-36.1-5.8-53.3c0-99.4,80.6-180,180-180c46.1,0,88.2,17.3,120,45.9
			C389.2,53.3,431.2,36,477.3,36z"/>
	</g>
</g>
</svg>
