<svg width="876" height="878" viewBox="0 0 876 878" fill="none" xmlns="http://www.w3.org/2000/svg">
<g filter="url(#filter0_d_366_52)">
<path d="M34 439L366.867 432.153C368.038 432.128 368.22 430.456 367.081 430.181L43.4687 351.937L370.025 416.806C371.174 417.034 371.711 415.44 370.658 414.926L71.4319 268.945L376.409 402.497C377.482 402.967 378.349 401.526 377.431 400.798L116.582 193.904L385.719 389.895C386.666 390.585 387.823 389.364 387.083 388.456L176.809 130.324L397.521 379.59C398.297 380.467 399.69 379.523 399.162 378.477L249.295 81.1776L411.262 372.062C411.832 373.085 413.395 372.463 413.104 371.328L330.651 48.7623L426.3 367.664C426.637 368.786 428.297 368.514 428.257 367.343L417.074 34.594L441.932 366.602C442.02 367.77 443.699 367.861 443.913 366.709L504.522 39.3353L457.427 368.925C457.261 370.084 458.882 370.534 459.338 369.455L588.906 62.7644L472.06 374.524C471.649 375.621 473.136 376.409 473.813 375.453L666.281 103.786L485.148 383.139C484.51 384.122 485.793 385.211 486.66 384.423L733.028 160.482L496.078 394.365C495.244 395.188 496.262 396.527 497.278 395.944L786.027 230.201L504.338 407.679C503.347 408.303 504.053 409.83 505.171 409.479L822.8 309.683L509.544 422.457C508.442 422.854 508.803 424.496 509.97 424.394L841.626 395.212L511.451 438.008C510.289 438.159 510.289 439.841 511.451 439.992L841.626 482.788L509.97 453.606C508.803 453.504 508.442 455.146 509.544 455.543L822.8 568.317L505.171 468.521C504.053 468.17 503.347 469.697 504.338 470.321L786.027 647.799L497.278 482.056C496.262 481.473 495.244 482.812 496.078 483.635L733.028 717.518L486.66 493.577C485.793 492.789 484.51 493.878 485.148 494.861L666.281 774.214L473.813 502.547C473.136 501.591 471.649 502.379 472.06 503.476L588.906 815.236L459.338 508.545C458.882 507.466 457.261 507.916 457.427 509.075L504.522 838.665L443.913 511.291C443.699 510.139 442.02 510.23 441.932 511.398L417.074 843.406L428.257 510.657C428.297 509.486 426.637 509.214 426.3 510.336L330.651 829.238L413.104 506.672C413.395 505.537 411.832 504.915 411.262 505.938L249.295 796.822L399.162 499.523C399.69 498.477 398.297 497.533 397.521 498.41L176.809 747.676L387.083 489.544C387.823 488.636 386.666 487.415 385.719 488.105L116.582 684.096L377.431 477.202C378.349 476.474 377.482 475.033 376.409 475.503L71.4319 609.055L370.658 463.073C371.711 462.56 371.174 460.966 370.025 461.194L43.4687 526.063L367.081 447.819C368.22 447.544 368.038 445.872 366.866 445.847L34 439Z" fill="url(#paint0_radial_366_52)" shape-rendering="crispEdges"/>
</g>
<defs>
<filter id="filter0_d_366_52" x="0" y="0.59375" width="875.625" height="876.812" filterUnits="userSpaceOnUse" color-interpolation-filters="sRGB">
<feFlood flood-opacity="0" result="BackgroundImageFix"/>
<feColorMatrix in="SourceAlpha" type="matrix" values="0 0 0 0 0 0 0 0 0 0 0 0 0 0 0 0 0 0 127 0" result="hardAlpha"/>
<feOffset/>
<feGaussianBlur stdDeviation="17"/>
<feComposite in2="hardAlpha" operator="out"/>
<feColorMatrix type="matrix" values="0 0 0 0 1 0 0 0 0 0.719769 0 0 0 0 0.0916667 0 0 0 1 0"/>
<feBlend mode="normal" in2="BackgroundImageFix" result="effect1_dropShadow_366_52"/>
<feBlend mode="normal" in="SourceGraphic" in2="effect1_dropShadow_366_52" result="shape"/>
</filter>
<radialGradient id="paint0_radial_366_52" cx="0" cy="0" r="1" gradientUnits="userSpaceOnUse" gradientTransform="translate(439 439) scale(437)">
<stop stop-color="#F5B102"/>
<stop offset="0.405" stop-color="#FFE500"/>
<stop offset="0.835" stop-color="#FFECAD"/>
<stop offset="1" stop-color="#FFECAD" stop-opacity="0.01"/>
</radialGradient>
</defs>
</svg>
